<svg width="100" height="75" viewBox="0 0 100 75" fill="none" xmlns="http://www.w3.org/2000/svg">
<g filter="url(#filter0_d_2_13)">
<mask id="path-1-outside-1_2_13" maskUnits="userSpaceOnUse" x="1" y="-2" width="97" height="69" fill="black">
<rect fill="white" x="1" y="-2" width="97" height="69"/>
<path d="M95.1533 0.751953L79.333 65H58.8105L52.6582 37.0068C52.541 36.4795 52.3506 35.5859 52.0869 34.3262C51.8525 33.0664 51.5742 31.6309 51.252 30.0195C50.959 28.4082 50.6807 26.8262 50.417 25.2734C50.1826 23.6914 50.0068 22.3584 49.8896 21.2744C49.7725 22.3584 49.582 23.6914 49.3184 25.2734C49.0547 26.8262 48.7617 28.4082 48.4395 30.0195C48.1465 31.6309 47.8535 33.0664 47.5605 34.3262C47.2969 35.5859 47.1064 36.4795 46.9893 37.0068L40.793 65H20.2705L4.3623 0.751953H21.1055L28.0928 32.9639C28.2686 33.7549 28.5029 34.8828 28.7959 36.3477C29.1182 37.7832 29.4404 39.3652 29.7627 41.0938C30.1143 42.793 30.4365 44.4336 30.7295 46.0156C31.0225 47.5977 31.2275 48.916 31.3447 49.9707C31.5791 48.1543 31.8867 46.0889 32.2676 43.7744C32.6777 41.46 33.1172 39.1162 33.5859 36.7432C34.084 34.3408 34.5527 32.1143 34.9922 30.0635C35.4316 28.0127 35.8125 26.3428 36.1348 25.0537L41.8037 0.751953H57.8877L63.3809 25.0537C63.6738 26.3135 64.04 27.9834 64.4795 30.0635C64.9482 32.1143 65.417 34.3408 65.8857 36.7432C66.3838 39.1455 66.8379 41.5186 67.248 43.8623C67.6582 46.1768 67.9658 48.2129 68.1709 49.9707C68.3467 48.5059 68.6396 46.6602 69.0498 44.4336C69.46 42.1777 69.8701 39.9951 70.2803 37.8857C70.7197 35.7471 71.0566 34.1357 71.291 33.0518L78.4102 0.751953H95.1533Z"/>
</mask>
<path d="M95.1533 0.751953L79.333 65H58.8105L52.6582 37.0068C52.541 36.4795 52.3506 35.5859 52.0869 34.3262C51.8525 33.0664 51.5742 31.6309 51.252 30.0195C50.959 28.4082 50.6807 26.8262 50.417 25.2734C50.1826 23.6914 50.0068 22.3584 49.8896 21.2744C49.7725 22.3584 49.582 23.6914 49.3184 25.2734C49.0547 26.8262 48.7617 28.4082 48.4395 30.0195C48.1465 31.6309 47.8535 33.0664 47.5605 34.3262C47.2969 35.5859 47.1064 36.4795 46.9893 37.0068L40.793 65H20.2705L4.3623 0.751953H21.1055L28.0928 32.9639C28.2686 33.7549 28.5029 34.8828 28.7959 36.3477C29.1182 37.7832 29.4404 39.3652 29.7627 41.0938C30.1143 42.793 30.4365 44.4336 30.7295 46.0156C31.0225 47.5977 31.2275 48.916 31.3447 49.9707C31.5791 48.1543 31.8867 46.0889 32.2676 43.7744C32.6777 41.46 33.1172 39.1162 33.5859 36.7432C34.084 34.3408 34.5527 32.1143 34.9922 30.0635C35.4316 28.0127 35.8125 26.3428 36.1348 25.0537L41.8037 0.751953H57.8877L63.3809 25.0537C63.6738 26.3135 64.04 27.9834 64.4795 30.0635C64.9482 32.1143 65.417 34.3408 65.8857 36.7432C66.3838 39.1455 66.8379 41.5186 67.248 43.8623C67.6582 46.1768 67.9658 48.2129 68.1709 49.9707C68.3467 48.5059 68.6396 46.6602 69.0498 44.4336C69.46 42.1777 69.8701 39.9951 70.2803 37.8857C70.7197 35.7471 71.0566 34.1357 71.291 33.0518L78.4102 0.751953H95.1533Z" fill="#C31212"/>
<path d="M95.1533 0.751953L97.0953 1.23015L97.7055 -1.24805H95.1533V0.751953ZM79.333 65V67H80.9003L81.275 65.4782L79.333 65ZM58.8105 65L56.8572 65.4293L57.2024 67H58.8105V65ZM52.6582 37.0068L54.6116 36.5775L54.6106 36.573L52.6582 37.0068ZM52.0869 34.3262L50.1207 34.692L50.1247 34.714L50.1293 34.7359L52.0869 34.3262ZM51.252 30.0195L49.2842 30.3773L49.2874 30.3946L49.2908 30.4118L51.252 30.0195ZM50.417 25.2734L48.4386 25.5665L48.4417 25.5874L48.4452 25.6083L50.417 25.2734ZM49.8896 21.2744L51.8781 21.0595H47.9012L49.8896 21.2744ZM49.3184 25.2734L51.2901 25.6083L51.2911 25.6022L49.3184 25.2734ZM48.4395 30.0195L46.4783 29.6273L46.4749 29.6445L46.4717 29.6618L48.4395 30.0195ZM47.5605 34.3262L45.6125 33.8731L45.6075 33.8947L45.603 33.9164L47.5605 34.3262ZM46.9893 37.0068L45.0369 36.573L45.0365 36.5746L46.9893 37.0068ZM40.793 65V67H42.3987L42.7457 65.4322L40.793 65ZM20.2705 65L18.3291 65.4807L18.7053 67H20.2705V65ZM4.3623 0.751953V-1.24805H1.8067L2.42093 1.23265L4.3623 0.751953ZM21.1055 0.751953L23.06 0.32798L22.7181 -1.24805H21.1055V0.751953ZM28.0928 32.9639L26.1382 33.3878L26.1404 33.3977L28.0928 32.9639ZM28.7959 36.3477L26.8347 36.7399L26.8393 36.7629L26.8445 36.7857L28.7959 36.3477ZM29.7627 41.0938L27.7966 41.4603L27.8002 41.4797L27.8042 41.499L29.7627 41.0938ZM31.3447 49.9707L29.357 50.1916L33.3283 50.2266L31.3447 49.9707ZM32.2676 43.7744L30.2983 43.4254L30.2961 43.4375L30.2941 43.4497L32.2676 43.7744ZM33.5859 36.7432L31.6276 36.3372L31.6257 36.3464L31.6239 36.3556L33.5859 36.7432ZM36.1348 25.0537L38.0751 25.5388L38.0789 25.5234L38.0825 25.5081L36.1348 25.0537ZM41.8037 0.751953V-1.24805H40.2166L39.856 0.297605L41.8037 0.751953ZM57.8877 0.751953L59.8385 0.310998L59.4861 -1.24805H57.8877V0.751953ZM63.3809 25.0537L61.43 25.4947L61.4328 25.5067L63.3809 25.0537ZM64.4795 30.0635L62.5227 30.4769L62.5261 30.493L62.5298 30.5091L64.4795 30.0635ZM65.8857 36.7432L63.9228 37.1262L63.925 37.1377L63.9274 37.1492L65.8857 36.7432ZM67.248 43.8623L65.278 44.2071L65.2787 44.2113L67.248 43.8623ZM68.1709 49.9707L66.1844 50.2025L70.1567 50.209L68.1709 49.9707ZM69.0498 44.4336L71.0167 44.7959L71.0175 44.7914L69.0498 44.4336ZM70.2803 37.8857L68.3212 37.4832L68.3191 37.4936L68.317 37.504L70.2803 37.8857ZM71.291 33.0518L69.3379 32.6213L69.3362 32.6291L71.291 33.0518ZM78.4102 0.751953V-1.24805H76.803L76.457 0.321469L78.4102 0.751953ZM93.2113 0.273761L77.391 64.5218L81.275 65.4782L97.0953 1.23015L93.2113 0.273761ZM79.333 63H58.8105V67H79.333V63ZM60.7639 64.5707L54.6116 36.5775L50.7048 37.4361L56.8572 65.4293L60.7639 64.5707ZM54.6106 36.573C54.4963 36.0589 54.3081 35.1761 54.0445 33.9164L50.1293 34.7359C50.393 35.9958 50.5857 36.9001 50.7058 37.4407L54.6106 36.573ZM54.0532 33.9604C53.8168 32.6897 53.5367 31.2451 53.2131 29.6273L49.2908 30.4118C49.6118 32.0166 49.8883 33.4431 50.1207 34.692L54.0532 33.9604ZM53.2197 29.6618C52.9281 28.0578 52.6511 26.4834 52.3888 24.9386L48.4452 25.6083C48.7102 27.169 48.9899 28.7586 49.2842 30.3773L53.2197 29.6618ZM52.3954 24.9803C52.1633 23.4135 51.9915 22.1084 51.8781 21.0595L47.9012 21.4894C48.0222 22.6084 48.202 23.9693 48.4386 25.5665L52.3954 24.9803ZM47.9012 21.0595C47.7896 22.0922 47.6056 23.3846 47.3456 24.9446L51.2911 25.6022C51.5585 23.9982 51.7553 22.6246 51.8781 21.4894L47.9012 21.0595ZM47.3466 24.9386C47.0863 26.4714 46.7969 28.0342 46.4783 29.6273L50.4006 30.4118C50.7265 28.7822 51.0231 27.181 51.2901 25.6083L47.3466 24.9386ZM46.4717 29.6618C46.1831 31.2491 45.8965 32.652 45.6125 33.8731L49.5086 34.7792C49.8105 33.4809 50.1099 32.0126 50.4072 30.3773L46.4717 29.6618ZM45.603 33.9164C45.3393 35.1761 45.1511 36.0589 45.0369 36.573L48.9416 37.4407C49.0618 36.9001 49.2544 35.9958 49.5181 34.7359L45.603 33.9164ZM45.0365 36.5746L38.8402 64.5678L42.7457 65.4322L48.942 37.4391L45.0365 36.5746ZM40.793 63H20.2705V67H40.793V63ZM22.2119 64.5193L6.30368 0.271257L2.42093 1.23265L18.3291 65.4807L22.2119 64.5193ZM4.3623 2.75195H21.1055V-1.24805H4.3623V2.75195ZM19.1509 1.17593L26.1382 33.3878L30.0473 32.5399L23.06 0.32798L19.1509 1.17593ZM26.1404 33.3977C26.3115 34.1679 26.5427 35.2795 26.8347 36.7399L30.7571 35.9554C30.4632 34.4861 30.2256 33.3419 30.0451 32.53L26.1404 33.3977ZM26.8445 36.7857C27.1605 38.1935 27.4779 39.7513 27.7966 41.4603L31.7288 40.7272C31.4029 38.9792 31.0758 37.3729 30.7473 35.9096L26.8445 36.7857ZM27.8042 41.499C28.1531 43.1856 28.4727 44.8125 28.7629 46.3798L32.6961 45.6514C32.4004 44.0547 32.0754 42.4004 31.7212 40.6885L27.8042 41.499ZM28.7629 46.3798C29.0511 47.9358 29.2471 49.2026 29.357 50.1916L33.3325 49.7498C33.208 48.6294 32.9938 47.2595 32.6961 45.6514L28.7629 46.3798ZM33.3283 50.2266C33.559 48.4385 33.863 46.3967 34.241 44.0992L30.2941 43.4497C29.9105 45.781 29.5992 47.8701 29.3612 49.7148L33.3283 50.2266ZM34.2369 44.1234C34.6447 41.8222 35.0817 39.4913 35.548 37.1307L31.6239 36.3556C31.1526 38.7411 30.7108 41.0977 30.2983 43.4254L34.2369 44.1234ZM35.5443 37.1492C36.0416 34.7505 36.5094 32.5283 36.9478 30.4825L33.0366 29.6444C32.5961 31.7002 32.1264 33.9312 31.6276 36.3372L35.5443 37.1492ZM36.9478 30.4825C37.3849 28.4428 37.7604 26.7972 38.0751 25.5388L34.1945 24.5686C33.8646 25.8884 33.4784 27.5826 33.0366 29.6444L36.9478 30.4825ZM38.0825 25.5081L43.7514 1.2063L39.856 0.297605L34.1871 24.5994L38.0825 25.5081ZM41.8037 2.75195H57.8877V-1.24805H41.8037V2.75195ZM55.9369 1.19291L61.4301 25.4947L65.3316 24.6128L59.8385 0.310998L55.9369 1.19291ZM61.4328 25.5067C61.7214 26.7477 62.0845 28.4028 62.5227 30.4769L66.4363 29.6501C65.9956 27.564 65.6262 25.8793 65.3289 24.6007L61.4328 25.5067ZM62.5298 30.5091C62.9931 32.5361 63.4575 34.7415 63.9228 37.1262L67.8487 36.3601C67.3765 33.9401 66.9034 31.6924 66.4292 29.6178L62.5298 30.5091ZM63.9274 37.1492C64.4213 39.5318 64.8715 41.8844 65.278 44.2071L69.2181 43.5175C68.8043 41.1527 68.3462 38.7592 67.8441 36.3372L63.9274 37.1492ZM65.2787 44.2113C65.6841 46.4986 65.9851 48.4942 66.1844 50.2025L70.1574 49.7389C69.9466 47.9316 69.6323 45.8549 69.2174 43.5133L65.2787 44.2113ZM70.1567 50.209C70.3256 48.8014 70.6106 47.0005 71.0167 44.7959L67.0829 44.0713C66.6687 46.3198 66.3678 48.2104 66.1851 49.7324L70.1567 50.209ZM71.0175 44.7914C71.4263 42.543 71.835 40.3684 72.2435 38.2675L68.317 37.504C67.9052 39.6219 67.4936 41.8125 67.0821 44.0758L71.0175 44.7914ZM72.2393 38.2883C72.6785 36.1512 73.0137 34.5481 73.2458 33.4744L69.3362 32.6291C69.0996 33.7234 68.761 35.3429 68.3212 37.4832L72.2393 38.2883ZM73.2441 33.4822L80.3633 1.18244L76.457 0.321469L69.3379 32.6213L73.2441 33.4822ZM78.4102 2.75195H95.1533V-1.24805H78.4102V2.75195Z" fill="#851717" mask="url(#path-1-outside-1_2_13)"/>
</g>
<defs>
<filter id="filter0_d_2_13" x="0.362305" y="0.751953" width="98.791" height="74.248" filterUnits="userSpaceOnUse" color-interpolation-filters="sRGB">
<feFlood flood-opacity="0" result="BackgroundImageFix"/>
<feColorMatrix in="SourceAlpha" type="matrix" values="0 0 0 0 0 0 0 0 0 0 0 0 0 0 0 0 0 0 127 0" result="hardAlpha"/>
<feOffset dy="6"/>
<feGaussianBlur stdDeviation="2"/>
<feComposite in2="hardAlpha" operator="out"/>
<feColorMatrix type="matrix" values="0 0 0 0 0 0 0 0 0 0 0 0 0 0 0 0 0 0 0.5 0"/>
<feBlend mode="normal" in2="BackgroundImageFix" result="effect1_dropShadow_2_13"/>
<feBlend mode="normal" in="SourceGraphic" in2="effect1_dropShadow_2_13" result="shape"/>
</filter>
</defs>
</svg>
