<svg width="659" height="89" viewBox="0 0 659 89" fill="none" xmlns="http://www.w3.org/2000/svg">
<g filter="url(#filter0_d_1_4)">
<mask id="path-1-outside-1_1_4" maskUnits="userSpaceOnUse" x="1.30826" y="-2.03825" width="657.139" height="82.438" fill="black">
<rect fill="white" x="1.30826" y="-2.03825" width="657.139" height="82.438"/>
<path d="M96.6699 3.35719L79.7307 67.3194L59.2114 66.9612L53.5485 38.8649C53.4405 38.3356 53.2657 37.4389 53.0241 36.1747C52.8117 34.911 52.5585 33.4708 52.2644 31.8541C51.9996 30.2379 51.749 28.6513 51.5124 27.0942C51.3057 25.5083 51.1532 24.1724 51.0549 23.0866C50.9189 24.1683 50.7052 25.4978 50.414 27.075C50.1232 28.6229 49.8027 30.1996 49.4523 31.805C49.1313 33.411 48.8133 34.8412 48.4984 36.0957C48.2128 37.3507 48.0068 38.2408 47.8804 38.766L41.1965 66.6467L20.6772 66.2886L5.8927 1.77267L22.6333 2.06487L29.0574 34.3938C29.2193 35.1878 29.434 36.3196 29.7013 37.7894C29.9985 39.2303 30.2931 40.8177 30.5852 42.5516C30.907 44.2567 31.2006 45.9027 31.4659 47.4896C31.7312 49.0765 31.9133 50.3983 32.012 51.4548C32.2781 49.6428 32.6217 47.583 33.0429 45.2756C33.4934 42.9687 33.9737 40.6329 34.4838 38.2684C35.0236 35.8751 35.5312 33.6571 36.0064 31.6143C36.4815 29.5715 36.8915 27.9085 37.2362 26.6252L43.3284 2.42611L59.4099 2.70681L64.4781 27.1007C64.7491 28.3654 65.0861 30.0415 65.4892 32.1289C65.9221 34.1876 66.3519 36.422 66.7786 38.8321C67.2347 41.2428 67.6473 43.6234 68.0165 45.974C68.3862 48.2952 68.6582 50.3364 68.8326 52.0975C69.0339 50.636 69.3591 48.7957 69.808 46.5766C70.2575 44.3283 70.7057 42.1531 71.1526 40.0512C71.6293 37.9206 71.9943 36.3154 72.2475 35.2356L79.9293 3.06498L96.6699 3.35719ZM172.622 36.724C172.536 41.6744 171.856 46.1749 170.584 50.2256C169.342 54.2475 167.436 57.7011 164.865 60.5864C162.295 63.4716 159.019 65.6706 155.037 67.1834C151.055 68.6669 146.311 69.3606 140.804 69.2644C135.414 69.1704 130.756 68.3126 126.828 66.691C122.931 65.0407 119.733 62.7434 117.235 59.7989C114.738 56.8252 112.91 53.2918 111.75 49.1987C110.591 45.1055 110.055 40.5545 110.143 35.5455C110.259 28.8668 111.459 23.0861 113.742 18.2033C116.055 13.2917 119.548 9.5289 124.224 6.91478C128.899 4.27137 134.84 3.01256 142.046 3.13834C149.369 3.26616 155.292 4.73205 159.814 7.53601C164.365 10.3405 167.667 14.2366 169.719 19.2243C171.771 24.2121 172.739 30.0453 172.622 36.724ZM128.42 35.9524C128.352 39.819 128.734 43.1514 129.564 45.9495C130.394 48.7476 131.748 50.9102 133.626 52.4374C135.504 53.9645 137.981 54.7549 141.056 54.8086C144.249 54.8644 146.796 54.1616 148.697 52.7004C150.627 51.2398 152.026 49.1252 152.895 46.3567C153.793 43.5888 154.276 40.2715 154.344 36.4049C154.445 30.605 153.558 26.0039 151.684 22.6015C149.809 19.1991 146.514 17.4568 141.798 17.3745C138.663 17.3197 136.116 18.0371 134.157 19.5266C132.226 21.0165 130.797 23.1599 129.869 25.9566C128.97 28.7539 128.487 32.0858 128.42 35.9524ZM252.429 38.117C252.342 43.0674 251.663 47.568 250.391 51.6186C249.149 55.6405 247.242 59.0941 244.672 61.9794C242.102 64.8647 238.826 67.0637 234.844 68.5764C230.862 70.0599 226.118 70.7536 220.611 70.6575C215.221 70.5634 210.562 69.7056 206.635 68.0841C202.737 66.4338 199.54 64.1364 197.042 61.192C194.545 58.2182 192.716 54.6848 191.557 50.5917C190.398 46.4986 189.862 41.9475 189.949 36.9385C190.066 30.2598 191.266 24.4791 193.549 19.5963C195.861 14.6848 199.355 10.9219 204.03 8.30781C208.706 5.6644 214.647 4.40559 221.853 4.53137C229.176 4.65919 235.099 6.12508 239.621 8.92904C244.172 11.7335 247.474 15.6296 249.526 20.6174C251.577 25.6051 252.545 31.4383 252.429 38.117ZM208.226 37.3454C208.159 41.212 208.54 44.5444 209.37 47.3425C210.201 50.1406 211.555 52.3033 213.433 53.8304C215.311 55.3576 217.787 56.148 220.863 56.2017C224.056 56.2574 226.603 55.5547 228.504 54.0935C230.434 52.6328 231.833 50.5182 232.702 47.7498C233.6 44.9818 234.083 41.6645 234.15 37.7979C234.251 31.998 233.365 27.3969 231.49 23.9945C229.616 20.5921 226.32 18.8498 221.604 18.7675C218.47 18.7128 215.923 19.4301 213.963 20.9196C212.033 22.4096 210.603 24.5529 209.675 27.3497C208.777 30.1469 208.294 33.4788 208.226 37.3454ZM326.444 71.6258L306.848 71.2837L294.578 46.5004L289.384 49.4863L289.009 70.9723L271.565 70.6678L272.686 6.42956L290.13 6.73404L289.643 34.6351C290.4 33.2418 291.259 31.8504 292.221 30.4607C293.212 29.0715 294.173 27.7551 295.103 26.5113L308.936 7.0623L327.917 7.39362L307.159 35.8199L326.444 71.6258ZM341.529 71.8891L342.651 7.6508L360.094 7.95528L358.973 72.1935L341.529 71.8891ZM419.139 73.2437L381 72.578L382.122 8.33976L420.26 9.00548L420.017 22.934L399.234 22.5713L399.058 32.6771L418.303 33.0131L418.06 46.9416L398.815 46.6057L398.603 58.7327L419.386 59.0955L419.139 73.2437ZM455.578 73.8798L438.486 73.5815L439.607 9.34318L477.57 10.0058L477.327 23.9344L456.456 23.5701L456.242 35.8289L475.487 36.1649L475.244 50.0934L455.999 49.7575L455.578 73.8798ZM495.093 74.5695L496.214 10.3313L513.57 10.6342L512.694 60.8561L537.431 61.2878L537.186 75.3043L495.093 74.5695ZM555.567 75.6251L556.688 11.3868L574.132 11.6913L573.01 75.9296L555.567 75.6251ZM652.905 77.3241L632.825 76.9736L620.653 56.6751L607.912 76.5388L588.271 76.196L610.155 43.7018L590.667 11.9799L609.912 12.3159L621.165 32.3786L632.672 12.7131L652.488 13.059L631.573 45.4382L652.905 77.3241Z"/>
</mask>
<path d="M96.6699 3.35719L79.7307 67.3194L59.2114 66.9612L53.5485 38.8649C53.4405 38.3356 53.2657 37.4389 53.0241 36.1747C52.8117 34.911 52.5585 33.4708 52.2644 31.8541C51.9996 30.2379 51.749 28.6513 51.5124 27.0942C51.3057 25.5083 51.1532 24.1724 51.0549 23.0866C50.9189 24.1683 50.7052 25.4978 50.414 27.075C50.1232 28.6229 49.8027 30.1996 49.4523 31.805C49.1313 33.411 48.8133 34.8412 48.4984 36.0957C48.2128 37.3507 48.0068 38.2408 47.8804 38.766L41.1965 66.6467L20.6772 66.2886L5.8927 1.77267L22.6333 2.06487L29.0574 34.3938C29.2193 35.1878 29.434 36.3196 29.7013 37.7894C29.9985 39.2303 30.2931 40.8177 30.5852 42.5516C30.907 44.2567 31.2006 45.9027 31.4659 47.4896C31.7312 49.0765 31.9133 50.3983 32.012 51.4548C32.2781 49.6428 32.6217 47.583 33.0429 45.2756C33.4934 42.9687 33.9737 40.6329 34.4838 38.2684C35.0236 35.8751 35.5312 33.6571 36.0064 31.6143C36.4815 29.5715 36.8915 27.9085 37.2362 26.6252L43.3284 2.42611L59.4099 2.70681L64.4781 27.1007C64.7491 28.3654 65.0861 30.0415 65.4892 32.1289C65.9221 34.1876 66.3519 36.422 66.7786 38.8321C67.2347 41.2428 67.6473 43.6234 68.0165 45.974C68.3862 48.2952 68.6582 50.3364 68.8326 52.0975C69.0339 50.636 69.3591 48.7957 69.808 46.5766C70.2575 44.3283 70.7057 42.1531 71.1526 40.0512C71.6293 37.9206 71.9943 36.3154 72.2475 35.2356L79.9293 3.06498L96.6699 3.35719ZM172.622 36.724C172.536 41.6744 171.856 46.1749 170.584 50.2256C169.342 54.2475 167.436 57.7011 164.865 60.5864C162.295 63.4716 159.019 65.6706 155.037 67.1834C151.055 68.6669 146.311 69.3606 140.804 69.2644C135.414 69.1704 130.756 68.3126 126.828 66.691C122.931 65.0407 119.733 62.7434 117.235 59.7989C114.738 56.8252 112.91 53.2918 111.75 49.1987C110.591 45.1055 110.055 40.5545 110.143 35.5455C110.259 28.8668 111.459 23.0861 113.742 18.2033C116.055 13.2917 119.548 9.5289 124.224 6.91478C128.899 4.27137 134.84 3.01256 142.046 3.13834C149.369 3.26616 155.292 4.73205 159.814 7.53601C164.365 10.3405 167.667 14.2366 169.719 19.2243C171.771 24.2121 172.739 30.0453 172.622 36.724ZM128.42 35.9524C128.352 39.819 128.734 43.1514 129.564 45.9495C130.394 48.7476 131.748 50.9102 133.626 52.4374C135.504 53.9645 137.981 54.7549 141.056 54.8086C144.249 54.8644 146.796 54.1616 148.697 52.7004C150.627 51.2398 152.026 49.1252 152.895 46.3567C153.793 43.5888 154.276 40.2715 154.344 36.4049C154.445 30.605 153.558 26.0039 151.684 22.6015C149.809 19.1991 146.514 17.4568 141.798 17.3745C138.663 17.3197 136.116 18.0371 134.157 19.5266C132.226 21.0165 130.797 23.1599 129.869 25.9566C128.97 28.7539 128.487 32.0858 128.42 35.9524ZM252.429 38.117C252.342 43.0674 251.663 47.568 250.391 51.6186C249.149 55.6405 247.242 59.0941 244.672 61.9794C242.102 64.8647 238.826 67.0637 234.844 68.5764C230.862 70.0599 226.118 70.7536 220.611 70.6575C215.221 70.5634 210.562 69.7056 206.635 68.0841C202.737 66.4338 199.54 64.1364 197.042 61.192C194.545 58.2182 192.716 54.6848 191.557 50.5917C190.398 46.4986 189.862 41.9475 189.949 36.9385C190.066 30.2598 191.266 24.4791 193.549 19.5963C195.861 14.6848 199.355 10.9219 204.03 8.30781C208.706 5.6644 214.647 4.40559 221.853 4.53137C229.176 4.65919 235.099 6.12508 239.621 8.92904C244.172 11.7335 247.474 15.6296 249.526 20.6174C251.577 25.6051 252.545 31.4383 252.429 38.117ZM208.226 37.3454C208.159 41.212 208.54 44.5444 209.37 47.3425C210.201 50.1406 211.555 52.3033 213.433 53.8304C215.311 55.3576 217.787 56.148 220.863 56.2017C224.056 56.2574 226.603 55.5547 228.504 54.0935C230.434 52.6328 231.833 50.5182 232.702 47.7498C233.6 44.9818 234.083 41.6645 234.15 37.7979C234.251 31.998 233.365 27.3969 231.49 23.9945C229.616 20.5921 226.32 18.8498 221.604 18.7675C218.47 18.7128 215.923 19.4301 213.963 20.9196C212.033 22.4096 210.603 24.5529 209.675 27.3497C208.777 30.1469 208.294 33.4788 208.226 37.3454ZM326.444 71.6258L306.848 71.2837L294.578 46.5004L289.384 49.4863L289.009 70.9723L271.565 70.6678L272.686 6.42956L290.13 6.73404L289.643 34.6351C290.4 33.2418 291.259 31.8504 292.221 30.4607C293.212 29.0715 294.173 27.7551 295.103 26.5113L308.936 7.0623L327.917 7.39362L307.159 35.8199L326.444 71.6258ZM341.529 71.8891L342.651 7.6508L360.094 7.95528L358.973 72.1935L341.529 71.8891ZM419.139 73.2437L381 72.578L382.122 8.33976L420.26 9.00548L420.017 22.934L399.234 22.5713L399.058 32.6771L418.303 33.0131L418.06 46.9416L398.815 46.6057L398.603 58.7327L419.386 59.0955L419.139 73.2437ZM455.578 73.8798L438.486 73.5815L439.607 9.34318L477.57 10.0058L477.327 23.9344L456.456 23.5701L456.242 35.8289L475.487 36.1649L475.244 50.0934L455.999 49.7575L455.578 73.8798ZM495.093 74.5695L496.214 10.3313L513.57 10.6342L512.694 60.8561L537.431 61.2878L537.186 75.3043L495.093 74.5695ZM555.567 75.6251L556.688 11.3868L574.132 11.6913L573.01 75.9296L555.567 75.6251ZM652.905 77.3241L632.825 76.9736L620.653 56.6751L607.912 76.5388L588.271 76.196L610.155 43.7018L590.667 11.9799L609.912 12.3159L621.165 32.3786L632.672 12.7131L652.488 13.059L631.573 45.4382L652.905 77.3241Z" fill="#C31212"/>
<path d="M96.6699 3.35719L98.6033 3.8692L99.2566 1.40203L96.7048 1.35749L96.6699 3.35719ZM79.7307 67.3194L79.6958 69.3191L81.2628 69.3464L81.6641 67.8314L79.7307 67.3194ZM59.2114 66.9612L57.2508 67.3563L57.5685 68.9328L59.1765 68.9609L59.2114 66.9612ZM53.5485 38.8649L55.5091 38.4698L55.5082 38.4652L53.5485 38.8649ZM53.0241 36.1747L51.0517 36.5061L51.0555 36.5282L51.0597 36.5502L53.0241 36.1747ZM52.2644 31.8541L50.2907 32.1775L50.2936 32.1948L50.2967 32.2121L52.2644 31.8541ZM51.5124 27.0942L49.5292 27.3527L49.5319 27.3737L49.5351 27.3946L51.5124 27.0942ZM51.0549 23.0866L53.0468 22.9063L49.0706 22.8369L51.0549 23.0866ZM50.414 27.075L52.3796 27.4442L52.3807 27.4382L50.414 27.075ZM49.4523 31.805L47.4983 31.3786L47.4946 31.3958L47.4912 31.413L49.4523 31.805ZM48.4984 36.0957L46.5586 35.6087L46.5532 35.6302L46.5483 35.6519L48.4984 36.0957ZM47.8804 38.766L45.9359 38.2981L45.9355 38.2997L47.8804 38.766ZM41.1965 66.6467L41.1616 68.6464L42.7671 68.6745L43.1414 67.113L41.1965 66.6467ZM20.6772 66.2886L18.7277 66.7353L19.0773 68.261L20.6423 68.2883L20.6772 66.2886ZM5.8927 1.77267L5.9276 -0.22703L3.37238 -0.271632L3.94323 2.21941L5.8927 1.77267ZM22.6333 2.06487L24.595 1.67508L24.2807 0.0933233L22.6682 0.0651782L22.6333 2.06487ZM29.0574 34.3938L27.0957 34.7836L27.0977 34.7936L29.0574 34.3938ZM29.7013 37.7894L27.7336 38.1473L27.7378 38.1704L27.7426 38.1933L29.7013 37.7894ZM30.5852 42.5516L28.6129 42.8838L28.6162 42.9032L28.6199 42.9226L30.5852 42.5516ZM32.012 51.4548L30.0207 51.641L33.9908 51.7454L32.012 51.4548ZM33.0429 45.2756L31.08 44.8923L31.0776 44.9044L31.0754 44.9165L33.0429 45.2756ZM34.4838 38.2684L32.5328 37.8283L32.5307 37.8375L32.5287 37.8467L34.4838 38.2684ZM37.2362 26.6252L39.1677 27.1441L39.1718 27.1288L39.1757 27.1135L37.2362 26.6252ZM43.3284 2.42611L43.3633 0.426412L41.7764 0.398713L41.3889 1.93784L43.3284 2.42611ZM59.4099 2.70681L61.3681 2.29997L61.043 0.735012L59.4448 0.707117L59.4099 2.70681ZM64.4781 27.1007L62.5199 27.5076L62.5225 27.5197L64.4781 27.1007ZM65.4892 32.1289L63.5255 32.5081L63.5286 32.5243L63.532 32.5405L65.4892 32.1289ZM66.7786 38.8321L64.8093 39.1808L64.8113 39.1924L64.8135 39.2039L66.7786 38.8321ZM68.0165 45.974L66.0407 46.2843L66.0414 46.2885L68.0165 45.974ZM68.8326 52.0975L66.8423 52.2946L70.8139 52.3704L68.8326 52.0975ZM69.808 46.5766L71.7683 46.9732L71.7692 46.9687L69.808 46.5766ZM71.1526 40.0512L69.2008 39.6146L69.1985 39.6249L69.1963 39.6353L71.1526 40.0512ZM72.2475 35.2356L70.3022 34.7711L70.3004 34.7789L72.2475 35.2356ZM79.9293 3.06498L79.9642 1.06528L78.3572 1.03723L77.984 2.60047L79.9293 3.06498ZM94.7365 2.84518L77.7974 66.8073L81.6641 67.8314L98.6033 3.8692L94.7365 2.84518ZM79.7656 65.3197L59.2463 64.9615L59.1765 68.9609L79.6958 69.3191L79.7656 65.3197ZM61.1719 66.566L55.5091 38.4698L51.5879 39.2601L57.2508 67.3563L61.1719 66.566ZM55.5082 38.4652C55.4029 37.9492 55.2301 37.0632 54.9885 35.7992L51.0597 36.5502C51.3013 37.8145 51.4782 38.722 51.5889 39.2646L55.5082 38.4652ZM54.9964 35.8432C54.7823 34.5687 54.5274 33.1194 54.2321 31.4962L50.2967 32.2121C50.5896 33.8223 50.8412 35.2534 51.0517 36.5061L54.9964 35.8432ZM54.2381 31.5308C53.9745 29.9219 53.7251 28.3429 53.4897 26.7938L49.5351 27.3946C49.7728 28.9596 50.0247 30.5539 50.2907 32.1775L54.2381 31.5308ZM53.4956 26.8357C53.2909 25.265 53.1419 23.9571 53.0468 22.9063L49.0631 23.2668C49.1645 24.3878 49.3205 25.7516 49.5292 27.3527L53.4956 26.8357ZM49.0706 22.8369C48.9409 23.8676 48.7344 25.1566 48.4472 26.7118L52.3807 27.4382C52.676 25.8391 52.8968 24.4691 53.0393 23.3362L49.0706 22.8369ZM48.4483 26.7058C48.1613 28.2338 47.8447 29.7914 47.4983 31.3786L51.4064 32.2314C51.7607 30.6078 52.0851 29.012 52.3796 27.4442L48.4483 26.7058ZM47.4912 31.413C47.1749 32.9951 46.8639 34.3927 46.5586 35.6087L50.4382 36.5826C50.7628 35.2898 51.0877 33.827 51.4135 32.1971L47.4912 31.413ZM46.5483 35.6519C46.2627 36.9067 46.0591 37.7861 45.9359 38.2981L49.8249 39.2338C49.9545 38.6954 50.1629 37.7946 50.4485 36.5395L46.5483 35.6519ZM45.9355 38.2997L39.2516 66.1805L43.1414 67.113L49.8253 39.2322L45.9355 38.2997ZM41.2314 64.647L20.7121 64.2889L20.6423 68.2883L41.1616 68.6464L41.2314 64.647ZM22.6267 65.8418L7.84217 1.32592L3.94323 2.21941L18.7277 66.7353L22.6267 65.8418ZM5.85779 3.77236L22.5984 4.06457L22.6682 0.0651782L5.9276 -0.22703L5.85779 3.77236ZM20.6717 2.45467L27.0957 34.7836L31.019 34.004L24.595 1.67508L20.6717 2.45467ZM27.0977 34.7936C27.2554 35.5666 27.4671 36.682 27.7336 38.1473L31.6691 37.4314C31.4009 35.9573 31.1832 34.809 31.017 33.9941L27.0977 34.7936ZM27.7426 38.1933C28.034 39.6064 28.3242 41.1695 28.6129 42.8838L32.5574 42.2194C32.262 40.466 31.963 38.8543 31.6601 37.3854L27.7426 38.1933ZM28.6199 42.9226C28.9393 44.615 29.2304 46.2473 29.4933 47.8194L33.4385 47.1598C33.1708 45.5581 32.8747 43.8984 32.5505 42.1807L28.6199 42.9226ZM29.4933 47.8194C29.7542 49.3803 29.9281 50.6502 30.0207 51.641L34.0033 51.2687C33.8984 50.1463 33.7082 48.7728 33.4385 47.1598L29.4933 47.8194ZM33.9908 51.7454C34.2527 49.9616 34.5922 47.9253 35.0104 45.6347L31.0754 44.9165C30.6511 47.2408 30.3034 49.324 30.0332 51.1643L33.9908 51.7454ZM35.0058 45.6589C35.4537 43.3652 35.9314 41.0423 36.4388 38.6902L32.5287 37.8467C32.016 40.2236 31.533 42.5721 31.08 44.8923L35.0058 45.6589ZM36.4347 38.7085C36.9738 36.3189 37.4803 34.1052 37.9544 32.0674L34.0584 31.1612C33.582 33.209 33.0735 35.4314 32.5328 37.8283L36.4347 38.7085ZM37.9544 32.0674C38.427 30.0356 38.8312 28.3968 39.1677 27.1441L35.3047 26.1064C34.9518 27.4201 34.5361 29.1073 34.0584 31.1612L37.9544 32.0674ZM39.1757 27.1135L45.2679 2.91438L41.3889 1.93784L35.2967 26.137L39.1757 27.1135ZM43.2935 4.4258L59.375 4.70651L59.4448 0.707117L43.3633 0.426412L43.2935 4.4258ZM57.4518 3.11365L62.52 27.5076L66.4363 26.6939L61.3681 2.29997L57.4518 3.11365ZM62.5225 27.5197C62.7894 28.7655 63.1235 30.4267 63.5255 32.5081L67.4529 31.7497C67.0487 29.6563 66.7088 27.9654 66.4338 26.6818L62.5225 27.5197ZM63.532 32.5405C63.9598 34.5752 64.3857 36.7884 64.8093 39.1808L68.748 38.4834C68.3181 36.0556 67.8843 33.7999 67.4464 31.7174L63.532 32.5405ZM64.8135 39.2039C65.2658 41.5948 65.6748 43.9549 66.0407 46.2843L69.9923 45.6636C69.6198 43.2919 69.2036 40.8908 68.7438 38.4604L64.8135 39.2039ZM66.0414 46.2885C66.4067 48.5826 66.6729 50.5831 66.8423 52.2946L70.8229 51.9005C70.6436 50.0897 70.3656 48.0079 69.9916 45.6594L66.0414 46.2885ZM70.8139 52.3704C71.0073 50.966 71.3238 49.1704 71.7683 46.9732L67.8477 46.18C67.3943 48.4209 67.0605 50.306 66.8513 51.8246L70.8139 52.3704ZM71.7692 46.9687C72.2172 44.7278 72.6637 42.5606 73.1088 40.4672L69.1963 39.6353C68.7476 41.7456 68.2978 43.9287 67.8468 46.1846L71.7692 46.9687ZM73.1043 40.4879C73.5807 38.3588 73.9438 36.7618 74.1947 35.6923L70.3004 34.7789C70.0447 35.869 69.6779 37.4823 69.2008 39.6146L73.1043 40.4879ZM74.1928 35.7001L81.8746 3.52948L77.984 2.60047L70.3022 34.7711L74.1928 35.7001ZM79.8944 5.06467L96.635 5.35688L96.7048 1.35749L79.9642 1.06528L79.8944 5.06467ZM170.584 50.2256L168.676 49.6264L168.673 49.6354L170.584 50.2256ZM155.037 67.1834L155.735 69.0576L155.747 69.0531L155.037 67.1834ZM126.828 66.691L126.049 68.5327L126.057 68.5362L126.065 68.5397L126.828 66.691ZM117.235 59.7989L115.704 61.0851L115.71 61.0927L117.235 59.7989ZM113.742 18.2033L111.932 17.3513L111.93 17.3562L113.742 18.2033ZM124.224 6.91478L125.2 8.66045L125.208 8.65581L124.224 6.91478ZM159.814 7.53601L158.76 9.23578L158.765 9.23872L159.814 7.53601ZM148.697 52.7004L147.49 51.1057L147.484 51.1102L147.478 51.1148L148.697 52.7004ZM152.895 46.3567L150.993 45.7395L150.99 45.7487L150.987 45.7579L152.895 46.3567ZM134.157 19.5266L132.946 17.9342L132.94 17.9387L132.935 17.9433L134.157 19.5266ZM129.869 25.9566L127.971 25.3269L127.968 25.3359L127.965 25.345L129.869 25.9566ZM170.622 36.689C170.539 41.4789 169.882 45.7858 168.676 49.6264L172.492 50.8248C173.83 46.564 174.532 41.8698 174.622 36.7589L170.622 36.689ZM168.673 49.6354C167.508 53.4083 165.735 56.6032 163.372 59.256L166.359 61.9167C169.136 58.7989 171.176 55.0867 172.495 50.8158L168.673 49.6354ZM163.372 59.256C161.037 61.8773 158.04 63.9033 154.327 65.3138L155.747 69.0531C159.999 67.438 163.553 65.0659 166.359 61.9167L163.372 59.256ZM154.339 65.3093C150.65 66.6838 146.166 67.3577 140.839 67.2647L140.769 71.2641C146.456 71.3634 151.461 70.65 155.735 69.0576L154.339 65.3093ZM140.839 67.2647C135.635 67.1739 131.235 66.3466 127.592 64.8424L126.065 68.5397C130.277 70.2785 135.194 71.1668 140.769 71.2641L140.839 67.2647ZM127.608 64.8493C123.97 63.309 121.037 61.1889 118.76 58.5051L115.71 61.0927C118.429 64.2978 121.891 66.7725 126.049 68.5327L127.608 64.8493ZM118.767 58.5127C116.468 55.7755 114.764 52.501 113.675 48.6537L109.826 49.7436C111.055 54.0826 113.008 57.8749 115.704 61.0851L118.767 58.5127ZM113.675 48.6537C112.577 44.7791 112.058 40.4272 112.142 35.5804L108.143 35.5106C108.053 40.6817 108.605 45.432 109.826 49.7436L113.675 48.6537ZM112.142 35.5804C112.255 29.1173 113.415 23.6254 115.554 19.0503L111.93 17.3562C109.503 22.5468 108.263 28.6163 108.143 35.5106L112.142 35.5804ZM115.551 19.0553C117.689 14.5158 120.894 11.068 125.2 8.66043L123.248 5.16913C118.203 7.98983 114.42 12.0677 111.932 17.3513L115.551 19.0553ZM125.208 8.65581C129.485 6.23809 135.044 5.01642 142.011 5.13803L142.081 1.13864C134.636 1.00869 128.314 2.30465 123.239 5.17375L125.208 8.65581ZM142.011 5.13803C149.104 5.26184 154.639 6.68034 158.76 9.23577L160.868 5.83625C155.945 2.78377 149.635 1.27049 142.081 1.13864L142.011 5.13803ZM158.765 9.23872C162.953 11.8195 165.977 15.3844 167.869 19.9852L171.569 18.4634C169.357 13.0888 165.778 8.86142 160.863 5.8333L158.765 9.23872ZM167.869 19.9852C169.796 24.6682 170.735 30.22 170.622 36.689L174.622 36.7589C174.742 29.8706 173.746 23.7559 171.569 18.4634L167.869 19.9852ZM126.42 35.9175C126.35 39.9262 126.743 43.4725 127.646 46.5184L131.481 45.3806C130.724 42.8302 130.354 39.7118 130.419 35.9873L126.42 35.9175ZM127.646 46.5184C128.567 49.6219 130.114 52.1594 132.364 53.9891L134.888 50.8857C133.382 49.6611 132.221 47.8733 131.481 45.3806L127.646 46.5184ZM132.364 53.9891C134.674 55.8676 137.621 56.749 141.022 56.8083L141.091 52.8089C138.34 52.7609 136.334 52.0615 134.888 50.8857L132.364 53.9891ZM141.022 56.8083C144.517 56.8693 147.553 56.1028 149.916 54.2861L147.478 51.1148C146.04 52.2205 143.982 52.8594 141.091 52.8089L141.022 56.8083ZM149.904 54.2952C152.227 52.537 153.835 50.0402 154.803 46.9555L150.987 45.7579C150.217 48.2102 149.027 49.9426 147.49 51.1057L149.904 54.2952ZM154.798 46.9739C155.773 43.9675 156.273 40.4434 156.343 36.4398L152.344 36.37C152.279 40.0996 151.814 43.21 150.993 45.7395L154.798 46.9739ZM156.343 36.4398C156.448 30.4503 155.542 25.4594 153.435 21.6364L149.932 23.5666C151.575 26.5483 152.442 30.7597 152.344 36.37L156.343 36.4398ZM153.435 21.6364C151.136 17.4629 147.084 15.4664 141.833 15.3748L141.763 19.3741C145.943 19.4471 148.482 20.9354 149.932 23.5666L153.435 21.6364ZM141.833 15.3748C138.374 15.3144 135.352 16.1062 132.946 17.9342L135.367 21.1189C136.881 19.968 138.953 19.3251 141.763 19.3741L141.833 15.3748ZM132.935 17.9433C130.628 19.7234 128.997 22.2319 127.971 25.3269L131.767 26.5864C132.596 24.0879 133.824 22.3097 135.378 21.1099L132.935 17.9433ZM127.965 25.345C126.991 28.377 126.49 31.9131 126.42 35.9175L130.419 35.9873C130.485 32.2585 130.95 29.1308 131.773 26.5683L127.965 25.345ZM250.391 51.6186L248.483 51.0194L248.48 51.0284L250.391 51.6186ZM234.844 68.5764L235.542 70.4506L235.554 70.4461L234.844 68.5764ZM206.635 68.0841L205.855 69.9258L205.863 69.9293L205.872 69.9327L206.635 68.0841ZM197.042 61.192L195.51 62.4782L195.517 62.4858L197.042 61.192ZM193.549 19.5963L191.739 18.7443L191.737 18.7493L193.549 19.5963ZM204.03 8.30781L205.006 10.0535L205.015 10.0488L204.03 8.30781ZM239.621 8.92904L238.567 10.6288L238.571 10.6318L239.621 8.92904ZM228.504 54.0935L227.297 52.4987L227.291 52.5032L227.285 52.5078L228.504 54.0935ZM232.702 47.7498L230.799 47.1325L230.796 47.1417L230.794 47.1509L232.702 47.7498ZM213.963 20.9196L212.753 19.3273L212.747 19.3318L212.741 19.3363L213.963 20.9196ZM209.675 27.3497L207.777 26.7199L207.774 26.7289L207.771 26.738L209.675 27.3497ZM250.429 38.0821C250.345 42.872 249.689 47.1789 248.483 51.0194L252.299 52.2179C253.637 47.957 254.339 43.2628 254.428 38.1519L250.429 38.0821ZM248.48 51.0284C247.315 54.8013 245.542 57.9963 243.179 60.649L246.165 63.3097C248.943 60.192 250.983 56.4798 252.302 52.2089L248.48 51.0284ZM243.179 60.649C240.844 63.2704 237.846 65.2963 234.133 66.7068L235.554 70.4461C239.805 68.831 243.36 66.4589 246.165 63.3097L243.179 60.649ZM234.145 66.7023C230.456 68.0768 225.973 68.7508 220.646 68.6578L220.576 72.6572C226.262 72.7564 231.268 72.043 235.542 70.4506L234.145 66.7023ZM220.646 68.6578C215.442 68.5669 211.041 67.7397 207.398 66.2354L205.872 69.9327C210.083 71.6715 215 72.5598 220.576 72.6572L220.646 68.6578ZM207.415 66.2423C203.777 64.702 200.844 62.5819 198.567 59.8981L195.517 62.4858C198.236 65.6908 201.698 68.1655 205.855 69.9258L207.415 66.2423ZM198.573 59.9058C196.275 57.1685 194.571 53.894 193.481 50.0467L189.633 51.1367C190.862 55.4756 192.814 59.268 195.51 62.4781L198.573 59.9058ZM193.481 50.0467C192.384 46.1721 191.864 41.8203 191.949 36.9734L187.95 36.9036C187.859 42.0747 188.412 46.825 189.633 51.1367L193.481 50.0467ZM191.949 36.9734C192.062 30.5103 193.221 25.0184 195.36 20.4434L191.737 18.7493C189.31 23.9398 188.07 30.0094 187.95 36.9036L191.949 36.9734ZM195.358 20.4483C197.495 15.9088 200.701 12.461 205.006 10.0535L203.054 6.56216C198.01 9.38286 194.227 13.4607 191.739 18.7443L195.358 20.4483ZM205.015 10.0488C209.291 7.63112 214.851 6.40945 221.818 6.53106L221.888 2.53167C214.443 2.40172 208.121 3.69768 203.046 6.56678L205.015 10.0488ZM221.818 6.53106C228.911 6.65487 234.445 8.07337 238.567 10.6288L240.675 7.22928C235.752 4.1768 229.441 2.66352 221.888 2.53167L221.818 6.53106ZM238.571 10.6318C242.76 13.2126 245.783 16.7774 247.676 21.3783L251.375 19.8564C249.164 14.4819 245.584 10.2544 240.67 7.22633L238.571 10.6318ZM247.676 21.3783C249.603 26.0613 250.542 31.613 250.429 38.0821L254.428 38.1519C254.549 31.2636 253.552 25.149 251.375 19.8564L247.676 21.3783ZM206.227 37.3105C206.157 41.3192 206.549 44.8656 207.453 47.9114L211.288 46.7736C210.531 44.2232 210.161 41.1048 210.226 37.3803L206.227 37.3105ZM207.453 47.9114C208.374 51.0149 209.921 53.5524 212.171 55.3821L214.694 52.2787C213.189 51.0541 212.027 49.2664 211.288 46.7736L207.453 47.9114ZM212.171 55.3821C214.481 57.2606 217.428 58.142 220.828 58.2014L220.898 54.202C218.147 54.1539 216.14 53.4545 214.694 52.2787L212.171 55.3821ZM220.828 58.2014C224.323 58.2624 227.359 57.4958 229.722 55.6791L227.285 52.5078C225.846 53.6135 223.788 54.2524 220.898 54.202L220.828 58.2014ZM229.71 55.6883C232.034 53.93 233.642 51.4332 234.61 48.3486L230.794 47.1509C230.024 49.6032 228.833 51.3356 227.297 52.4987L229.71 55.6883ZM234.604 48.367C235.58 45.3606 236.08 41.8365 236.15 37.8328L232.15 37.763C232.085 41.4926 231.62 44.603 230.799 47.1325L234.604 48.367ZM236.15 37.8328C236.254 31.8434 235.348 26.8525 233.242 23.0294L229.738 24.9596C231.381 27.9413 232.248 32.1527 232.15 37.763L236.15 37.8328ZM233.242 23.0294C230.943 18.8559 226.891 16.8595 221.639 16.7678L221.569 20.7672C225.75 20.8401 228.289 22.3284 229.738 24.9596L233.242 23.0294ZM221.639 16.7678C218.181 16.7074 215.158 17.4992 212.753 19.3273L215.173 22.512C216.688 21.3611 218.76 20.7181 221.569 20.7672L221.639 16.7678ZM212.741 19.3363C210.435 21.1164 208.804 23.6249 207.777 26.7199L211.574 27.9794C212.403 25.481 213.63 23.7027 215.185 22.5029L212.741 19.3363ZM207.771 26.738C206.797 29.77 206.297 33.3061 206.227 37.3105L210.226 37.3803C210.291 33.6516 210.756 30.5238 211.58 27.9613L207.771 26.738ZM326.444 71.6258L326.409 73.6255L329.825 73.6851L328.205 70.6774L326.444 71.6258ZM306.848 71.2837L305.055 72.1711L305.595 73.2621L306.813 73.2834L306.848 71.2837ZM294.578 46.5004L296.371 45.613L295.426 43.7059L293.581 44.7664L294.578 46.5004ZM289.384 49.4863L288.387 47.7524L287.404 48.3176L287.384 49.4514L289.384 49.4863ZM289.009 70.9723L288.974 72.972L290.973 73.0069L291.008 71.0072L289.009 70.9723ZM271.565 70.6678L269.565 70.6329L269.53 72.6326L271.53 72.6675L271.565 70.6678ZM272.686 6.42956L272.721 4.42987L270.721 4.39496L270.687 6.39466L272.686 6.42956ZM290.13 6.73404L292.13 6.76895L292.164 4.76925L290.165 4.73435L290.13 6.73404ZM289.643 34.6351L287.643 34.6002L291.4 35.5898L289.643 34.6351ZM292.221 30.4607L290.593 29.299L290.585 29.3107L290.577 29.3224L292.221 30.4607ZM295.103 26.5113L296.705 27.7091L296.719 27.69L296.733 27.6705L295.103 26.5113ZM308.936 7.0623L308.971 5.0626L307.917 5.04421L307.306 5.90312L308.936 7.0623ZM327.917 7.39362L329.532 8.5731L331.805 5.46118L327.952 5.39393L327.917 7.39362ZM307.159 35.8199L305.544 34.6404L304.8 35.6584L305.398 36.7683L307.159 35.8199ZM326.479 69.6261L306.883 69.284L306.813 73.2834L326.409 73.6255L326.479 69.6261ZM308.64 70.3963L296.371 45.613L292.786 47.3877L305.055 72.1711L308.64 70.3963ZM293.581 44.7664L288.387 47.7524L290.38 51.2203L295.575 48.2343L293.581 44.7664ZM287.384 49.4514L287.009 70.9374L291.008 71.0072L291.383 49.5212L287.384 49.4514ZM289.044 68.9726L271.6 68.6681L271.53 72.6675L288.974 72.972L289.044 68.9726ZM273.565 70.7027L274.686 6.46447L270.687 6.39466L269.565 70.6329L273.565 70.7027ZM272.651 8.42926L290.095 8.73374L290.165 4.73435L272.721 4.42987L272.651 8.42926ZM288.13 6.69914L287.643 34.6002L291.643 34.67L292.13 6.76895L288.13 6.69914ZM291.4 35.5898C292.121 34.2637 292.942 32.9333 293.865 31.599L290.577 29.3224C289.576 30.7674 288.679 32.22 287.885 33.6804L291.4 35.5898ZM293.849 31.6223C294.832 30.2441 295.784 28.9398 296.705 27.7091L293.501 25.3136C292.561 26.5704 291.592 27.8989 290.593 29.299L293.849 31.6223ZM296.733 27.6705L310.565 8.22148L307.306 5.90312L293.473 25.3522L296.733 27.6705ZM308.901 9.06199L327.882 9.39332L327.952 5.39393L308.971 5.0626L308.901 9.06199ZM326.302 6.21414L305.544 34.6404L308.774 36.9993L329.532 8.5731L326.302 6.21414ZM305.398 36.7683L324.683 72.5742L328.205 70.6774L308.92 34.8715L305.398 36.7683ZM341.529 71.8891L339.53 71.8542L339.495 73.8539L341.494 73.8888L341.529 71.8891ZM342.651 7.6508L342.686 5.6511L340.686 5.6162L340.651 7.61589L342.651 7.6508ZM360.094 7.95528L362.094 7.99018L362.129 5.99049L360.129 5.95558L360.094 7.95528ZM358.973 72.1935L358.938 74.1932L360.938 74.2281L360.973 72.2285L358.973 72.1935ZM343.529 71.924L344.65 7.6857L340.651 7.61589L339.53 71.8542L343.529 71.924ZM342.616 9.65049L360.059 9.95497L360.129 5.95558L342.686 5.6511L342.616 9.65049ZM358.095 7.92037L356.973 72.1586L360.973 72.2285L362.094 7.99018L358.095 7.92037ZM359.008 70.1939L341.564 69.8894L341.494 73.8888L358.938 74.1932L359.008 70.1939ZM419.139 73.2437L419.104 75.2434L421.104 75.2783L421.139 73.2787L419.139 73.2437ZM381 72.578L379.001 72.5431L378.966 74.5428L380.965 74.5777L381 72.578ZM382.122 8.33976L382.156 6.34007L380.157 6.30516L380.122 8.30486L382.122 8.33976ZM420.26 9.00548L422.26 9.04038L422.295 7.04069L420.295 7.00578L420.26 9.00548ZM420.017 22.934L419.982 24.9337L421.982 24.9686L422.017 22.9689L420.017 22.934ZM399.234 22.5713L399.269 20.5716L397.269 20.5367L397.235 22.5363L399.234 22.5713ZM399.058 32.6771L397.058 32.6422L397.023 34.6419L399.023 34.6768L399.058 32.6771ZM418.303 33.0131L420.303 33.048L420.338 31.0483L418.338 31.0134L418.303 33.0131ZM418.06 46.9416L418.025 48.9413L420.025 48.9762L420.059 46.9765L418.06 46.9416ZM398.815 46.6057L398.85 44.606L396.85 44.5711L396.815 46.5708L398.815 46.6057ZM398.603 58.7327L396.603 58.6978L396.568 60.6975L398.568 60.7324L398.603 58.7327ZM419.386 59.0955L421.386 59.1304L421.421 57.1307L419.421 57.0958L419.386 59.0955ZM419.174 71.2441L381.035 70.5783L380.965 74.5777L419.104 75.2434L419.174 71.2441ZM383 72.6129L384.121 8.37467L380.122 8.30486L379.001 72.5431L383 72.6129ZM382.087 10.3395L420.225 11.0052L420.295 7.00578L382.156 6.34007L382.087 10.3395ZM418.261 8.97057L418.017 22.8991L422.017 22.9689L422.26 9.04038L418.261 8.97057ZM420.052 20.9343L399.269 20.5716L399.199 24.5709L419.982 24.9337L420.052 20.9343ZM397.235 22.5363L397.058 32.6422L401.058 32.712L401.234 22.6062L397.235 22.5363ZM399.023 34.6768L418.268 35.0128L418.338 31.0134L399.093 30.6774L399.023 34.6768ZM416.303 32.9782L416.06 46.9067L420.059 46.9765L420.303 33.048L416.303 32.9782ZM418.095 44.9419L398.85 44.606L398.78 48.6054L418.025 48.9413L418.095 44.9419ZM396.815 46.5708L396.603 58.6978L400.603 58.7676L400.814 46.6406L396.815 46.5708ZM398.568 60.7324L419.351 61.0952L419.421 57.0958L398.638 56.733L398.568 60.7324ZM417.386 59.0606L417.139 73.2088L421.139 73.2787L421.386 59.1304L417.386 59.0606ZM455.578 73.8798L455.543 75.8795L457.543 75.9144L457.578 73.9147L455.578 73.8798ZM438.486 73.5815L436.486 73.5465L436.451 75.5462L438.451 75.5811L438.486 73.5815ZM439.607 9.34318L439.642 7.34349L437.643 7.30858L437.608 9.30828L439.607 9.34318ZM477.57 10.0058L479.57 10.0407L479.605 8.04104L477.605 8.00613L477.57 10.0058ZM477.327 23.9344L477.292 25.9341L479.292 25.969L479.327 23.9693L477.327 23.9344ZM456.456 23.5701L456.491 21.5704L454.492 21.5355L454.457 23.5352L456.456 23.5701ZM456.242 35.8289L454.243 35.794L454.208 37.7937L456.207 37.8286L456.242 35.8289ZM475.487 36.1649L477.487 36.1998L477.522 34.2001L475.522 34.1652L475.487 36.1649ZM475.244 50.0934L475.209 52.0931L477.209 52.128L477.244 50.1283L475.244 50.0934ZM455.999 49.7575L456.034 47.7578L454.034 47.7229L454 49.7226L455.999 49.7575ZM455.613 71.8801L438.521 71.5818L438.451 75.5811L455.543 75.8795L455.613 71.8801ZM440.486 73.6164L441.607 9.37809L437.608 9.30828L436.486 73.5465L440.486 73.6164ZM439.572 11.3429L477.535 12.0055L477.605 8.00613L439.642 7.34349L439.572 11.3429ZM475.571 9.97092L475.328 23.8995L479.327 23.9693L479.57 10.0407L475.571 9.97092ZM477.362 21.9347L456.491 21.5704L456.421 25.5698L477.292 25.9341L477.362 21.9347ZM454.457 23.5352L454.243 35.794L458.242 35.8639L458.456 23.605L454.457 23.5352ZM456.207 37.8286L475.453 38.1646L475.522 34.1652L456.277 33.8293L456.207 37.8286ZM473.488 36.13L473.245 50.0585L477.244 50.1283L477.487 36.1998L473.488 36.13ZM475.279 48.0937L456.034 47.7578L455.964 51.7572L475.209 52.0931L475.279 48.0937ZM454 49.7226L453.579 73.8449L457.578 73.9147L457.999 49.7924L454 49.7226ZM495.093 74.5695L493.093 74.5346L493.058 76.5343L495.058 76.5692L495.093 74.5695ZM496.214 10.3313L496.249 8.33157L494.25 8.29666L494.215 10.2964L496.214 10.3313ZM513.57 10.6342L515.57 10.6691L515.605 8.66942L513.605 8.63451L513.57 10.6342ZM512.694 60.8561L510.694 60.8212L510.659 62.8208L512.659 62.8558L512.694 60.8561ZM537.431 61.2878L539.431 61.3228L539.466 59.3231L537.466 59.2882L537.431 61.2878ZM537.186 75.3043L537.151 77.304L539.151 77.3389L539.186 75.3392L537.186 75.3043ZM497.093 74.6044L498.214 10.3662L494.215 10.2964L493.093 74.5346L497.093 74.6044ZM496.179 12.331L513.535 12.6339L513.605 8.63451L496.249 8.33157L496.179 12.331ZM511.57 10.5993L510.694 60.8212L514.693 60.891L515.57 10.6691L511.57 10.5993ZM512.659 62.8558L537.396 63.2875L537.466 59.2882L512.728 58.8564L512.659 62.8558ZM535.431 61.2529L535.187 75.2694L539.186 75.3392L539.431 61.3228L535.431 61.2529ZM537.221 73.3046L495.128 72.5698L495.058 76.5692L537.151 77.304L537.221 73.3046ZM555.567 75.6251L553.567 75.5902L553.532 77.5899L555.532 77.6248L555.567 75.6251ZM556.688 11.3868L556.723 9.38714L554.723 9.35223L554.688 11.3519L556.688 11.3868ZM574.132 11.6913L576.131 11.7262L576.166 9.72652L574.166 9.69162L574.132 11.6913ZM573.01 75.9296L572.975 77.9293L574.975 77.9642L575.01 75.9645L573.01 75.9296ZM557.566 75.66L558.688 11.4217L554.688 11.3519L553.567 75.5902L557.566 75.66ZM556.653 13.3865L574.097 13.691L574.166 9.69162L556.723 9.38714L556.653 13.3865ZM572.132 11.6564L571.011 75.8947L575.01 75.9645L576.131 11.7262L572.132 11.6564ZM573.045 73.9299L555.602 73.6254L555.532 77.6248L572.975 77.9293L573.045 73.9299ZM652.905 77.3241L652.87 79.3238L656.694 79.3906L654.567 76.2121L652.905 77.3241ZM632.825 76.9736L631.11 78.0022L631.68 78.954L632.79 78.9733L632.825 76.9736ZM620.653 56.6751L622.368 55.6466L620.71 52.8816L618.969 55.5953L620.653 56.6751ZM607.912 76.5388L607.877 78.5385L608.993 78.558L609.595 77.6186L607.912 76.5388ZM588.271 76.196L586.612 75.0788L584.556 78.1314L588.236 78.1957L588.271 76.196ZM610.155 43.7018L611.814 44.819L612.533 43.7515L611.859 42.6549L610.155 43.7018ZM590.667 11.9799L590.702 9.98024L587.052 9.91653L588.963 13.0269L590.667 11.9799ZM609.912 12.3159L611.656 11.3375L611.094 10.3362L609.947 10.3162L609.912 12.3159ZM621.165 32.3786L619.421 33.357L621.128 36.4015L622.891 33.3887L621.165 32.3786ZM632.672 12.7131L632.707 10.7134L631.537 10.693L630.946 11.7031L632.672 12.7131ZM652.488 13.059L654.168 14.1442L656.12 11.1221L652.523 11.0593L652.488 13.059ZM631.573 45.4382L629.893 44.353L629.18 45.4575L629.911 46.5503L631.573 45.4382ZM652.94 75.3244L632.86 74.974L632.79 78.9733L652.87 79.3238L652.94 75.3244ZM634.54 75.9451L622.368 55.6466L618.938 57.7037L631.11 78.0022L634.54 75.9451ZM618.969 55.5953L606.228 75.459L609.595 77.6186L622.336 57.7549L618.969 55.5953ZM607.947 74.5391L588.306 74.1963L588.236 78.1957L607.877 78.5385L607.947 74.5391ZM589.93 77.3132L611.814 44.819L608.496 42.5846L586.612 75.0788L589.93 77.3132ZM611.859 42.6549L592.371 10.933L588.963 13.0269L608.451 44.7488L611.859 42.6549ZM590.632 13.9796L609.877 14.3156L609.947 10.3162L590.702 9.98024L590.632 13.9796ZM608.167 13.2943L619.421 33.357L622.909 31.4002L611.656 11.3375L608.167 13.2943ZM622.891 33.3887L634.398 13.7232L630.946 11.7031L619.439 31.3685L622.891 33.3887ZM632.637 14.7128L652.453 15.0587L652.523 11.0593L632.707 10.7134L632.637 14.7128ZM650.808 11.9739L629.893 44.353L633.253 46.5234L654.168 14.1442L650.808 11.9739ZM629.911 46.5503L651.243 78.4362L654.567 76.2121L633.236 44.3261L629.911 46.5503Z" fill="#851717" mask="url(#path-1-outside-1_1_4)"/>
</g>
<defs>
<filter id="filter0_d_1_4" x="0.756073" y="0.76207" width="657.288" height="87.4408" filterUnits="userSpaceOnUse" color-interpolation-filters="sRGB">
<feFlood flood-opacity="0" result="BackgroundImageFix"/>
<feColorMatrix in="SourceAlpha" type="matrix" values="0 0 0 0 0 0 0 0 0 0 0 0 0 0 0 0 0 0 127 0" result="hardAlpha"/>
<feOffset dy="6"/>
<feGaussianBlur stdDeviation="2"/>
<feComposite in2="hardAlpha" operator="out"/>
<feColorMatrix type="matrix" values="0 0 0 0 0 0 0 0 0 0 0 0 0 0 0 0 0 0 0.5 0"/>
<feBlend mode="normal" in2="BackgroundImageFix" result="effect1_dropShadow_1_4"/>
<feBlend mode="normal" in="SourceGraphic" in2="effect1_dropShadow_1_4" result="shape"/>
</filter>
</defs>
</svg>
