<svg width="674" height="191" viewBox="0 0 674 191" fill="none" xmlns="http://www.w3.org/2000/svg">
<g filter="url(#filter0_d_2_12)">
<mask id="path-1-outside-1_2_12" maskUnits="userSpaceOnUse" x="9.16185" y="66.9184" width="115.936" height="100.665" fill="black">
<rect fill="white" x="9.16185" y="66.9184" width="115.936" height="100.665"/>
<path d="M97.308 70.5452L107.069 135.988L88.084 143.781L71.7627 120.221C71.4541 119.778 70.9386 119.023 70.2163 117.958C69.5211 116.882 68.7185 115.659 67.8085 114.291C66.9256 112.912 66.0674 111.554 65.2339 110.218C64.4163 108.843 63.7475 107.677 63.2275 106.718C63.5307 107.766 63.8607 109.071 64.2176 110.635C64.5632 112.171 64.893 113.746 65.2067 115.359C65.5475 116.961 65.8216 118.4 66.029 119.677C66.2634 120.942 66.4265 121.841 66.5184 122.374L71.4159 150.623L52.4306 158.416L13.3173 105.021L28.8064 98.663L47.502 125.809C47.965 126.474 48.6101 127.428 49.4374 128.672C50.2807 129.878 51.1795 131.219 52.134 132.696C53.1045 134.134 54.0256 135.53 54.8974 136.882C55.7691 138.234 56.4595 139.376 56.9684 140.307C56.4954 138.538 55.9957 136.51 55.4692 134.225C54.9698 131.928 54.4863 129.593 54.0189 127.219C53.5674 124.808 53.1555 122.57 52.7833 120.506C52.4111 118.442 52.1294 116.752 51.938 115.438L47.9543 90.8034L62.8336 84.6959L77.1433 105.092C77.8927 106.146 78.8656 107.551 80.062 109.309C81.2744 111.028 82.5535 112.91 83.8994 114.954C85.2724 116.988 86.5935 119.01 87.863 121.023C89.1213 123.008 90.179 124.775 91.0362 126.323C90.6426 124.901 90.2128 123.083 89.7467 120.867C89.2695 118.625 88.8202 116.45 88.3986 114.343C87.993 112.197 87.6929 110.579 87.4981 109.487L81.8189 76.903L97.308 70.5452Z"/>
</mask>
<path d="M97.308 70.5452L107.069 135.988L88.084 143.781L71.7627 120.221C71.4541 119.778 70.9386 119.023 70.2163 117.958C69.5211 116.882 68.7185 115.659 67.8085 114.291C66.9256 112.912 66.0674 111.554 65.2339 110.218C64.4163 108.843 63.7475 107.677 63.2275 106.718C63.5307 107.766 63.8607 109.071 64.2176 110.635C64.5632 112.171 64.893 113.746 65.2067 115.359C65.5475 116.961 65.8216 118.4 66.029 119.677C66.2634 120.942 66.4265 121.841 66.5184 122.374L71.4159 150.623L52.4306 158.416L13.3173 105.021L28.8064 98.663L47.502 125.809C47.965 126.474 48.6101 127.428 49.4374 128.672C50.2807 129.878 51.1795 131.219 52.134 132.696C53.1045 134.134 54.0256 135.53 54.8974 136.882C55.7691 138.234 56.4595 139.376 56.9684 140.307C56.4954 138.538 55.9957 136.51 55.4692 134.225C54.9698 131.928 54.4863 129.593 54.0189 127.219C53.5674 124.808 53.1555 122.57 52.7833 120.506C52.4111 118.442 52.1294 116.752 51.938 115.438L47.9543 90.8034L62.8336 84.6959L77.1433 105.092C77.8927 106.146 78.8656 107.551 80.062 109.309C81.2744 111.028 82.5535 112.91 83.8994 114.954C85.2724 116.988 86.5935 119.01 87.863 121.023C89.1213 123.008 90.179 124.775 91.0362 126.323C90.6426 124.901 90.2128 123.083 89.7467 120.867C89.2695 118.625 88.8202 116.45 88.3986 114.343C87.993 112.197 87.6929 110.579 87.4981 109.487L81.8189 76.903L97.308 70.5452Z" fill="#C31212"/>
<path d="M97.308 70.5452L99.2861 70.2501L98.9096 67.7258L96.5485 68.695L97.308 70.5452ZM107.069 135.988L107.829 137.839L109.279 137.243L109.047 135.693L107.069 135.988ZM88.084 143.781L86.4399 144.92L87.3557 146.242L88.8434 145.631L88.084 143.781ZM71.7627 120.221L73.4068 119.082L73.4041 119.078L71.7627 120.221ZM70.2163 117.958L68.5362 119.043L68.5484 119.062L68.5609 119.08L70.2163 117.958ZM67.8085 114.291L66.124 115.369L66.1335 115.384L66.1432 115.399L67.8085 114.291ZM65.2339 110.218L63.515 111.24L63.5258 111.258L63.537 111.276L65.2339 110.218ZM63.2275 106.718L64.9854 105.764L61.3064 107.274L63.2275 106.718ZM64.2176 110.635L66.1688 110.196L66.1674 110.19L64.2176 110.635ZM65.2067 115.359L63.2435 115.741L63.2468 115.758L63.2505 115.775L65.2067 115.359ZM66.029 119.677L64.0548 119.997L64.0584 120.019L64.0624 120.041L66.029 119.677ZM66.5184 122.374L64.5475 122.714L64.5478 122.715L66.5184 122.374ZM71.4159 150.623L72.1754 152.473L73.6608 151.863L73.3865 150.281L71.4159 150.623ZM52.4306 158.416L50.8172 159.598L51.7421 160.86L53.1901 160.266L52.4306 158.416ZM13.3173 105.021L12.5579 103.171L10.1937 104.141L11.7039 106.203L13.3173 105.021ZM28.8064 98.663L30.4535 97.5286L29.5388 96.2005L28.0469 96.8128L28.8064 98.663ZM47.502 125.809L45.8549 126.943L45.8606 126.952L47.502 125.809ZM49.4374 128.672L47.7721 129.78L47.7851 129.799L47.7985 129.819L49.4374 128.672ZM52.134 132.696L50.4543 133.782L50.465 133.798L50.4761 133.814L52.134 132.696ZM56.9684 140.307L55.2133 141.266L58.9005 139.791L56.9684 140.307ZM55.4692 134.225L53.5149 134.649L53.5175 134.662L53.5202 134.673L55.4692 134.225ZM54.0189 127.219L52.053 127.587L52.0547 127.597L52.0566 127.606L54.0189 127.219ZM51.938 115.438L53.9171 115.15L53.9149 115.134L53.9123 115.118L51.938 115.438ZM47.9543 90.8034L47.1949 88.9532L45.7266 89.5559L45.98 91.1227L47.9543 90.8034ZM62.8336 84.6959L64.4708 83.5472L63.5528 82.2387L62.0741 82.8457L62.8336 84.6959ZM77.1433 105.092L75.5061 106.24L75.5132 106.25L77.1433 105.092ZM80.062 109.309L78.4087 110.434L78.418 110.448L78.4276 110.461L80.062 109.309ZM83.8994 114.954L82.2289 116.054L82.2353 116.064L82.2419 116.073L83.8994 114.954ZM87.863 121.023L86.1714 122.09L86.1737 122.094L87.863 121.023ZM91.0362 126.323L89.2865 127.292L92.9637 125.79L91.0362 126.323ZM89.7467 120.867L91.7039 120.455L91.7029 120.451L89.7467 120.867ZM88.3986 114.343L86.4334 114.714L86.4354 114.724L86.4375 114.735L88.3986 114.343ZM87.4981 109.487L85.5278 109.83L85.5292 109.838L87.4981 109.487ZM81.8189 76.903L81.0595 75.0528L79.5726 75.6631L79.8486 77.2464L81.8189 76.903ZM95.3299 70.8402L105.091 136.283L109.047 135.693L99.2861 70.2501L95.3299 70.8402ZM106.31 134.138L87.3245 141.931L88.8434 145.631L107.829 137.839L106.31 134.138ZM89.728 142.642L73.4068 119.082L70.1187 121.36L86.4399 144.92L89.728 142.642ZM73.4041 119.078C73.1032 118.646 72.5939 117.901 71.8717 116.836L68.5609 119.08C69.2833 120.146 69.8049 120.909 70.1213 121.364L73.4041 119.078ZM71.8964 116.873C71.1952 115.787 70.3875 114.557 69.4739 113.183L66.1432 115.399C67.0495 116.761 67.847 117.976 68.5362 119.043L71.8964 116.873ZM69.493 113.213C68.6142 111.84 67.7601 110.488 66.9308 109.159L63.537 111.276C64.3748 112.619 65.2371 113.984 66.124 115.369L69.493 113.213ZM66.9528 109.195C66.1431 107.834 65.4886 106.692 64.9854 105.764L61.4697 107.672C62.0065 108.661 62.6896 109.852 63.515 111.24L66.9528 109.195ZM61.3064 107.274C61.5953 108.272 61.9158 109.538 62.2677 111.08L66.1674 110.19C65.8057 108.604 65.4662 107.259 65.1486 106.162L61.3064 107.274ZM62.2663 111.074C62.6076 112.59 62.9333 114.146 63.2435 115.741L67.1699 114.977C66.8526 113.346 66.5189 111.752 66.1688 110.196L62.2663 111.074ZM63.2505 115.775C63.5863 117.353 63.8538 118.76 64.0548 119.997L68.0031 119.356C67.7894 118.04 67.5088 116.569 67.1629 114.943L63.2505 115.775ZM64.0624 120.041C64.2968 121.307 64.458 122.195 64.5475 122.714L68.4893 122.034C68.3951 121.488 68.23 120.578 67.9955 119.313L64.0624 120.041ZM64.5478 122.715L69.4453 150.965L73.3865 150.281L68.489 122.032L64.5478 122.715ZM70.6565 148.773L51.6712 156.566L53.1901 160.266L72.1754 152.473L70.6565 148.773ZM54.0441 157.234L14.9307 103.839L11.7039 106.203L50.8172 159.598L54.0441 157.234ZM14.0768 106.871L29.5658 100.513L28.0469 96.8128L12.5579 103.171L14.0768 106.871ZM27.1592 99.7975L45.8549 126.943L49.1492 124.675L30.4535 97.5286L27.1592 99.7975ZM45.8606 126.952C46.3114 127.599 46.9473 128.54 47.7721 129.78L51.1027 127.565C50.273 126.317 49.6186 125.349 49.1434 124.666L45.8606 126.952ZM47.7985 129.819C48.6254 131.001 49.5106 132.321 50.4543 133.782L53.8137 131.61C52.8484 130.117 51.9359 128.755 51.0763 127.526L47.7985 129.819ZM50.4761 133.814C51.4393 135.242 52.3527 136.626 53.2164 137.966L56.5783 135.798C55.6985 134.433 54.7696 133.026 53.792 131.577L50.4761 133.814ZM53.2164 137.966C54.0738 139.296 54.7361 140.393 55.2133 141.266L58.7234 139.348C58.1828 138.359 57.4644 137.173 56.5783 135.798L53.2164 137.966ZM58.9005 139.791C58.435 138.049 57.9408 136.045 57.4182 133.776L53.5202 134.673C54.0506 136.976 54.5559 139.027 55.0362 140.824L58.9005 139.791ZM57.4235 133.8C56.927 131.516 56.4462 129.194 55.9812 126.833L52.0566 127.606C52.5265 129.992 53.0126 132.339 53.5149 134.649L57.4235 133.8ZM55.9847 126.851C55.5339 124.443 55.1229 122.21 54.7516 120.151L50.8151 120.861C51.1882 122.93 51.6008 125.172 52.053 127.587L55.9847 126.851ZM54.7516 120.151C54.3814 118.098 54.104 116.433 53.9171 115.15L49.9588 115.726C50.1548 117.072 50.4409 118.786 50.8151 120.861L54.7516 120.151ZM53.9123 115.118L49.9287 90.4841L45.98 91.1227L49.9636 115.757L53.9123 115.118ZM48.7138 92.6536L63.593 86.5461L62.0741 82.8457L47.1949 88.9532L48.7138 92.6536ZM61.1964 85.8446L75.5061 106.24L78.7806 103.943L64.4708 83.5472L61.1964 85.8446ZM75.5132 106.25C76.2514 107.289 77.2158 108.682 78.4087 110.434L81.7153 108.183C80.5154 106.421 79.534 105.003 78.7734 103.933L75.5132 106.25ZM78.4276 110.461C79.6258 112.161 80.8929 114.025 82.2289 116.054L85.5699 113.855C84.2141 111.795 82.9229 109.895 81.6965 108.156L78.4276 110.461ZM82.2419 116.073C83.6036 118.09 84.9134 120.096 86.1714 122.09L89.5546 119.956C88.2737 117.925 86.9411 115.885 85.5569 113.835L82.2419 116.073ZM86.1737 122.094C87.4172 124.056 88.4534 125.787 89.2865 127.292L92.7859 125.355C91.9046 123.763 90.8253 121.961 89.5523 119.952L86.1737 122.094ZM92.9637 125.79C92.5855 124.423 92.1653 122.649 91.7039 120.455L87.7895 121.279C88.2602 123.516 88.6997 125.379 89.1087 126.857L92.9637 125.79ZM91.7029 120.451C91.2273 118.216 90.7796 116.049 90.3598 113.95L86.4375 114.735C86.8607 116.85 87.3117 119.033 87.7905 121.283L91.7029 120.451ZM90.3638 113.971C89.9585 111.827 89.6599 110.217 89.467 109.136L85.5292 109.838C85.7258 110.94 86.0276 112.567 86.4334 114.714L90.3638 113.971ZM89.4684 109.143L83.7892 76.5596L79.8486 77.2464L85.5278 109.83L89.4684 109.143ZM82.5784 78.7532L98.0674 72.3954L96.5485 68.695L81.0595 75.0528L82.5784 78.7532Z" fill="#851717" mask="url(#path-1-outside-1_2_12)"/>
<mask id="path-3-outside-2_2_12" maskUnits="userSpaceOnUse" x="111.669" y="44.9687" width="84.0124" height="86.1371" fill="black">
<rect fill="white" x="111.669" y="44.9687" width="84.0124" height="86.1371"/>
<path d="M183.759 80.304C185.036 85.0876 185.62 89.6016 185.509 93.8459C185.42 98.0543 184.536 101.899 182.857 105.379C181.179 108.86 178.633 111.874 175.22 114.423C171.799 116.943 167.428 118.914 162.106 120.334C156.898 121.725 152.183 122.18 147.961 121.7C143.76 121.184 140.055 119.854 136.844 117.709C133.626 115.536 130.897 112.641 128.658 109.024C126.418 105.406 124.653 101.178 123.361 96.3375C121.638 89.8839 121.203 83.996 122.056 78.6739C122.93 73.316 125.256 68.738 129.033 64.9399C132.803 61.1135 138.169 58.2709 145.132 56.4119C152.208 54.5227 158.306 54.3049 163.424 55.7585C168.571 57.2045 172.816 60.0435 176.16 64.2755C179.503 68.5075 182.036 73.8503 183.759 80.304ZM141.046 91.7071C142.043 95.4434 143.326 98.5427 144.893 101.005C146.46 103.467 148.356 105.175 150.581 106.127C152.806 107.08 155.405 107.159 158.377 106.366C161.462 105.542 163.718 104.166 165.144 102.239C166.599 100.304 167.363 97.8867 167.438 94.9861C167.541 92.078 167.094 88.7557 166.096 85.0194C164.6 79.4149 162.483 75.2344 159.746 72.478C157.009 69.7217 153.362 68.9518 148.805 70.1684C145.776 70.977 143.524 72.3666 142.049 74.3372C140.602 76.3003 139.817 78.7538 139.693 81.6979C139.597 84.6343 140.048 87.9707 141.046 91.7071Z"/>
</mask>
<path d="M183.759 80.304C185.036 85.0876 185.62 89.6016 185.509 93.8459C185.42 98.0543 184.536 101.899 182.857 105.379C181.179 108.86 178.633 111.874 175.22 114.423C171.799 116.943 167.428 118.914 162.106 120.334C156.898 121.725 152.183 122.18 147.961 121.7C143.76 121.184 140.055 119.854 136.844 117.709C133.626 115.536 130.897 112.641 128.658 109.024C126.418 105.406 124.653 101.178 123.361 96.3375C121.638 89.8839 121.203 83.996 122.056 78.6739C122.93 73.316 125.256 68.738 129.033 64.9399C132.803 61.1135 138.169 58.2709 145.132 56.4119C152.208 54.5227 158.306 54.3049 163.424 55.7585C168.571 57.2045 172.816 60.0435 176.16 64.2755C179.503 68.5075 182.036 73.8503 183.759 80.304ZM141.046 91.7071C142.043 95.4434 143.326 98.5427 144.893 101.005C146.46 103.467 148.356 105.175 150.581 106.127C152.806 107.08 155.405 107.159 158.377 106.366C161.462 105.542 163.718 104.166 165.144 102.239C166.599 100.304 167.363 97.8867 167.438 94.9861C167.541 92.078 167.094 88.7557 166.096 85.0194C164.6 79.4149 162.483 75.2344 159.746 72.478C157.009 69.7217 153.362 68.9518 148.805 70.1684C145.776 70.977 143.524 72.3666 142.049 74.3372C140.602 76.3003 139.817 78.7538 139.693 81.6979C139.597 84.6343 140.048 87.9707 141.046 91.7071Z" fill="#C31212"/>
<path d="M185.509 93.8459L183.51 93.794L183.51 93.8034L185.509 93.8459ZM175.22 114.423L176.406 116.033L176.416 116.025L175.22 114.423ZM147.961 121.7L147.718 123.685L147.727 123.686L147.736 123.687L147.961 121.7ZM136.844 117.709L135.725 119.366L135.733 119.372L136.844 117.709ZM122.056 78.6739L120.082 78.3519L120.082 78.3573L122.056 78.6739ZM129.033 64.9399L130.451 66.3502L130.458 66.3435L129.033 64.9399ZM163.424 55.7585L162.878 57.6824L162.883 57.684L163.424 55.7585ZM165.144 102.239L163.546 101.037L163.541 101.043L163.537 101.05L165.144 102.239ZM167.438 94.9861L165.439 94.9154L165.439 94.925L165.439 94.9347L167.438 94.9861ZM142.049 74.3372L140.448 73.1386L140.443 73.1446L140.439 73.1506L142.049 74.3372ZM139.693 81.6979L137.695 81.6139L137.694 81.6234L137.694 81.6329L139.693 81.6979ZM181.827 80.8199C183.062 85.4484 183.614 89.7699 183.51 93.794L187.509 93.8978C187.625 89.4333 187.01 84.7269 185.691 79.7881L181.827 80.8199ZM183.51 93.8034C183.426 97.7513 182.599 101.31 181.056 104.51L184.659 106.248C186.473 102.487 187.414 98.3574 187.509 93.8884L183.51 93.8034ZM181.056 104.51C179.531 107.672 177.205 110.444 174.023 112.82L176.416 116.025C180.06 113.304 182.827 110.047 184.659 106.248L181.056 104.51ZM174.033 112.813C170.864 115.148 166.738 117.028 161.591 118.402L162.622 122.267C168.117 120.8 172.734 118.738 176.406 116.033L174.033 112.813ZM161.591 118.402C156.562 119.745 152.104 120.158 148.187 119.713L147.736 123.687C152.263 124.202 157.235 123.705 162.622 122.267L161.591 118.402ZM148.205 119.715C144.284 119.233 140.881 118.001 137.955 116.046L135.733 119.372C139.228 121.707 143.237 123.135 147.718 123.685L148.205 119.715ZM137.963 116.051C135.001 114.051 132.463 111.371 130.358 107.971L126.957 110.076C129.331 113.911 132.251 117.02 135.725 119.366L137.963 116.051ZM130.358 107.971C128.239 104.547 126.543 100.505 125.293 95.8217L121.428 96.8534C122.762 101.85 124.598 106.266 126.957 110.076L130.358 107.971ZM125.293 95.8217C123.626 89.5763 123.231 83.9772 124.031 78.9906L120.082 78.3573C119.174 84.0148 119.65 90.1915 121.428 96.8534L125.293 95.8217ZM124.03 78.9959C124.838 74.0439 126.973 69.8481 130.451 66.3502L127.615 63.5296C123.539 67.6278 121.023 72.588 120.082 78.3519L124.03 78.9959ZM130.458 66.3435C133.906 62.8438 138.916 60.1416 145.648 58.3442L144.616 54.4796C137.422 56.4002 131.7 59.3832 127.608 63.5363L130.458 66.3435ZM145.648 58.3442C152.502 56.5145 158.213 56.3577 162.878 57.6824L163.971 53.8346C158.399 52.2522 151.915 52.531 144.616 54.4796L145.648 58.3442ZM162.883 57.684C167.62 59.0146 171.506 61.6116 174.59 65.5153L177.729 63.0357C174.126 58.4755 169.522 55.3944 163.965 53.8331L162.883 57.684ZM174.59 65.5153C177.729 69.4887 180.158 74.5687 181.827 80.8199L185.691 79.7881C183.914 73.132 181.277 67.5263 177.729 63.0357L174.59 65.5153ZM139.114 92.2229C140.148 96.0966 141.5 99.3986 143.205 102.079L146.58 99.9312C145.152 97.6869 143.939 94.7902 142.978 91.1912L139.114 92.2229ZM143.205 102.079C144.944 104.81 147.128 106.825 149.794 107.966L151.368 104.288C149.584 103.525 147.976 102.125 146.58 99.9312L143.205 102.079ZM149.794 107.966C152.531 109.137 155.607 109.175 158.893 108.298L157.861 104.433C155.203 105.143 153.081 105.022 151.368 104.288L149.794 107.966ZM158.893 108.298C162.271 107.396 164.979 105.825 166.752 103.429L163.537 101.05C162.458 102.508 160.654 103.688 157.861 104.433L158.893 108.298ZM166.743 103.441C168.494 101.112 169.354 98.2695 169.437 95.0376L165.439 94.9347C165.373 97.504 164.704 99.4968 163.546 101.037L166.743 103.441ZM169.437 95.0569C169.549 91.8982 169.061 88.3723 168.029 84.5035L164.164 85.5353C165.126 89.1392 165.533 92.2577 165.439 94.9154L169.437 95.0569ZM168.029 84.5035C166.484 78.7158 164.241 74.166 161.165 71.0688L158.327 73.8873C160.726 76.3029 162.717 80.1139 164.164 85.5353L168.029 84.5035ZM161.165 71.0688C157.808 67.6877 153.363 66.8813 148.289 68.2361L149.321 72.1007C153.36 71.0223 156.21 71.7556 158.327 73.8873L161.165 71.0688ZM148.289 68.2361C144.947 69.1283 142.258 70.7201 140.448 73.1386L143.65 75.5358C144.79 74.0131 146.605 72.8256 149.321 72.1007L148.289 68.2361ZM140.439 73.1506C138.71 75.4959 137.832 78.3559 137.695 81.6139L141.691 81.7818C141.802 79.1518 142.494 77.1046 143.659 75.5238L140.439 73.1506ZM137.694 81.6329C137.59 84.8158 138.081 88.3534 139.114 92.2229L142.978 91.1912C142.016 87.588 141.604 84.4528 141.692 81.7628L137.694 81.6329Z" fill="#851717" mask="url(#path-3-outside-2_2_12)"/>
<mask id="path-5-outside-3_2_12" maskUnits="userSpaceOnUse" x="192.644" y="31.7479" width="77.7471" height="80.2708" fill="black">
<rect fill="white" x="192.644" y="31.7479" width="77.7471" height="80.2708"/>
<path d="M262.28 67.5774C263.012 72.4742 263.085 77.0251 262.499 81.2302C261.937 85.402 260.627 89.1228 258.568 92.3927C256.509 95.6626 253.641 98.3722 249.963 100.521C246.281 102.642 241.716 104.109 236.269 104.923C230.938 105.72 226.201 105.642 222.06 104.691C217.944 103.707 214.411 101.969 211.461 99.477C208.507 96.9562 206.121 93.773 204.302 89.9273C202.483 86.0817 201.204 81.6814 200.463 76.7267C199.476 70.1204 199.705 64.2209 201.151 59.0284C202.621 53.8025 205.446 49.5146 209.626 46.1647C213.801 42.7859 219.453 40.5638 226.581 39.4986C233.824 38.4161 239.908 38.8844 244.83 40.9036C249.782 42.9184 253.682 46.2162 256.529 50.7969C259.376 55.3776 261.293 60.9711 262.28 67.5774ZM218.557 74.1116C219.128 77.9363 220.054 81.1601 221.335 83.7828C222.615 86.4055 224.308 88.315 226.412 89.5113C228.516 90.7076 231.09 91.0784 234.132 90.6237C237.29 90.1517 239.686 89.0383 241.32 87.2834C242.982 85.5242 244.014 83.2077 244.414 80.3338C244.842 77.4556 244.771 74.1041 244.2 70.2794C243.342 64.5424 241.708 60.1506 239.298 57.1043C236.888 54.058 233.35 52.8834 228.685 53.5805C225.585 54.0438 223.191 55.1718 221.504 56.9642C219.846 58.7524 218.79 61.1023 218.336 64.0138C217.912 66.921 217.985 70.2869 218.557 74.1116Z"/>
</mask>
<path d="M262.28 67.5774C263.012 72.4742 263.085 77.0251 262.499 81.2302C261.937 85.402 260.627 89.1228 258.568 92.3927C256.509 95.6626 253.641 98.3722 249.963 100.521C246.281 102.642 241.716 104.109 236.269 104.923C230.938 105.72 226.201 105.642 222.06 104.691C217.944 103.707 214.411 101.969 211.461 99.477C208.507 96.9562 206.121 93.773 204.302 89.9273C202.483 86.0817 201.204 81.6814 200.463 76.7267C199.476 70.1204 199.705 64.2209 201.151 59.0284C202.621 53.8025 205.446 49.5146 209.626 46.1647C213.801 42.7859 219.453 40.5638 226.581 39.4986C233.824 38.4161 239.908 38.8844 244.83 40.9036C249.782 42.9184 253.682 46.2162 256.529 50.7969C259.376 55.3776 261.293 60.9711 262.28 67.5774ZM218.557 74.1116C219.128 77.9363 220.054 81.1601 221.335 83.7828C222.615 86.4055 224.308 88.315 226.412 89.5113C228.516 90.7076 231.09 91.0784 234.132 90.6237C237.29 90.1517 239.686 89.0383 241.32 87.2834C242.982 85.5242 244.014 83.2077 244.414 80.3338C244.842 77.4556 244.771 74.1041 244.2 70.2794C243.342 64.5424 241.708 60.1506 239.298 57.1043C236.888 54.058 233.35 52.8834 228.685 53.5805C225.585 54.0438 223.191 55.1718 221.504 56.9642C219.846 58.7524 218.79 61.1023 218.336 64.0138C217.912 66.921 217.985 70.2869 218.557 74.1116Z" fill="#C31212"/>
<path d="M262.499 81.2302L260.518 80.9541L260.516 80.9635L262.499 81.2302ZM249.963 100.521L250.961 102.255L250.972 102.248L249.963 100.521ZM222.06 104.691L221.595 106.637L221.604 106.639L221.612 106.641L222.06 104.691ZM211.461 99.477L210.163 100.998L210.17 101.005L211.461 99.477ZM201.151 59.0284L199.225 58.4867L199.224 58.4919L201.151 59.0284ZM209.626 46.1647L210.877 47.7254L210.884 47.7194L209.626 46.1647ZM244.83 40.9036L244.071 42.754L244.077 42.7561L244.83 40.9036ZM241.32 87.2834L239.866 85.9097L239.861 85.9152L239.856 85.9207L241.32 87.2834ZM244.414 80.3338L242.435 80.039L242.434 80.0486L242.433 80.0581L244.414 80.3338ZM221.504 56.9642L220.047 55.5935L220.042 55.5989L220.037 55.6043L221.504 56.9642ZM218.336 64.0138L216.36 63.7059L216.358 63.7153L216.357 63.7247L218.336 64.0138ZM260.302 67.873C261.01 72.611 261.073 76.9672 260.518 80.9541L264.479 81.5063C265.096 77.0831 265.014 72.3374 264.258 67.2818L260.302 67.873ZM260.516 80.9635C259.99 84.8769 258.769 88.3207 256.876 91.3271L260.261 93.4584C262.485 89.925 263.885 85.927 264.481 81.497L260.516 80.9635ZM256.876 91.3271C255.005 94.2979 252.383 96.7907 248.954 98.7946L250.972 102.248C254.899 99.9536 258.013 97.0274 260.261 93.4584L256.876 91.3271ZM248.965 98.7882C245.553 100.753 241.243 102.157 235.973 102.945L236.565 106.901C242.19 106.06 247.009 104.531 250.961 102.255L248.965 98.7882ZM235.973 102.945C230.826 103.714 226.349 103.624 222.508 102.742L221.612 106.641C226.053 107.661 231.049 107.725 236.565 106.901L235.973 102.945ZM222.525 102.746C218.683 101.827 215.44 100.22 212.752 97.9492L210.17 101.005C213.381 103.717 217.204 105.587 221.595 106.637L222.525 102.746ZM212.759 97.9557C210.04 95.6354 207.82 92.6869 206.11 89.0722L202.494 90.7824C204.422 94.8591 206.974 98.2771 210.163 100.998L212.759 97.9557ZM206.11 89.0722C204.388 85.4319 203.158 81.2255 202.441 76.4311L198.485 77.0223C199.25 82.1374 200.578 86.7314 202.494 90.7824L206.11 89.0722ZM202.441 76.4311C201.486 70.038 201.723 64.4301 203.077 59.5648L199.224 58.4919C197.687 64.0118 197.466 70.2028 198.485 77.0223L202.441 76.4311ZM203.076 59.57C204.435 54.74 207.027 50.8105 210.877 47.7253L208.375 44.6041C203.865 48.2187 200.807 52.8649 199.225 58.4867L203.076 59.57ZM210.884 47.7194C214.703 44.6291 219.985 42.5065 226.876 41.4766L226.285 37.5206C218.921 38.6211 212.899 40.9427 208.368 44.61L210.884 47.7194ZM226.876 41.4766C233.892 40.4282 239.585 40.9138 244.072 42.754L245.589 39.0532C240.23 36.855 233.757 36.404 226.285 37.5206L226.876 41.4766ZM244.077 42.7561C248.634 44.6103 252.204 47.6272 254.83 51.8526L258.227 49.7411C255.159 44.8052 250.931 41.2266 245.584 39.0511L244.077 42.7561ZM254.83 51.8526C257.503 56.1534 259.346 61.474 260.302 67.873L264.258 67.2818C263.24 60.4682 261.248 54.6017 258.227 49.7411L254.83 51.8526ZM216.579 74.4072C217.171 78.3725 218.144 81.8054 219.538 84.6603L223.132 82.9052C221.965 80.5147 221.085 77.5001 220.535 73.816L216.579 74.4072ZM219.538 84.6603C220.958 87.5693 222.903 89.8167 225.424 91.2499L227.401 87.7726C225.713 86.8133 224.273 85.2417 223.132 82.9052L219.538 84.6603ZM225.424 91.2499C228.012 92.7215 231.064 93.1044 234.428 92.6017L233.836 88.6457C231.115 89.0523 229.021 88.6936 227.401 87.7726L225.424 91.2499ZM234.428 92.6017C237.885 92.085 240.753 90.8279 242.784 88.6461L239.856 85.9207C238.62 87.2486 236.696 88.2184 233.836 88.6457L234.428 92.6017ZM242.773 88.6571C244.775 86.5395 245.949 83.8116 246.394 80.6095L242.433 80.0581C242.078 82.6038 241.19 84.5089 239.866 85.9097L242.773 88.6571ZM246.392 80.6286C246.858 77.5024 246.769 73.9441 246.178 69.9838L242.222 70.575C242.773 74.2642 242.827 77.4088 242.435 80.039L246.392 80.6286ZM246.178 69.9838C245.292 64.0592 243.575 59.2863 240.866 55.8633L237.73 58.3453C239.842 61.015 241.392 65.0255 242.222 70.575L246.178 69.9838ZM240.866 55.8633C237.91 52.1265 233.584 50.8262 228.389 51.6025L228.981 55.5585C233.116 54.9406 235.866 55.9894 237.73 58.3453L240.866 55.8633ZM228.389 51.6025C224.968 52.1138 222.118 53.3935 220.047 55.5935L222.96 58.335C224.264 56.95 226.201 55.9739 228.981 55.5585L228.389 51.6025ZM220.037 55.6043C218.056 57.7407 216.862 60.4839 216.36 63.7059L220.312 64.3216C220.717 61.7206 221.635 59.7641 222.97 58.3242L220.037 55.6043ZM216.357 63.7247C215.897 66.8759 215.987 70.4462 216.579 74.4072L220.535 73.816C219.983 70.1276 219.926 66.966 220.315 64.3028L216.357 63.7247Z" fill="#851717" mask="url(#path-5-outside-3_2_12)"/>
<mask id="path-7-outside-4_2_12" maskUnits="userSpaceOnUse" x="277.06" y="28.7575" width="65.9155" height="71.6513" fill="black">
<rect fill="white" x="277.06" y="28.7575" width="65.9155" height="71.6513"/>
<path d="M337.725 95.9181L318.143 96.7629L304.396 72.7677L299.392 76.0626L300.318 97.5319L282.888 98.2838L280.119 34.0955L297.549 33.3435L298.752 61.2229C299.423 59.7864 300.196 58.3454 301.072 56.9001C301.978 55.4535 302.857 54.0813 303.71 52.7836L316.34 32.5328L335.307 31.7146L316.308 61.3452L337.725 95.9181Z"/>
</mask>
<path d="M337.725 95.9181L318.143 96.7629L304.396 72.7677L299.392 76.0626L300.318 97.5319L282.888 98.2838L280.119 34.0955L297.549 33.3435L298.752 61.2229C299.423 59.7864 300.196 58.3454 301.072 56.9001C301.978 55.4535 302.857 54.0813 303.71 52.7836L316.34 32.5328L335.307 31.7146L316.308 61.3452L337.725 95.9181Z" fill="#C31212"/>
<path d="M337.725 95.9181L337.811 97.9162L341.224 97.769L339.425 94.8648L337.725 95.9181ZM318.143 96.7629L316.408 97.7571L317.013 98.8135L318.23 98.761L318.143 96.7629ZM304.396 72.7677L306.132 71.7734L305.074 69.927L303.296 71.0972L304.396 72.7677ZM299.392 76.0626L298.292 74.3922L297.345 75.0158L297.394 76.1488L299.392 76.0626ZM300.318 97.5319L300.404 99.53L302.403 99.4438L302.316 97.4457L300.318 97.5319ZM282.888 98.2838L280.89 98.3701L280.976 100.368L282.974 100.282L282.888 98.2838ZM280.119 34.0955L280.033 32.0974L278.035 32.1836L278.121 34.1817L280.119 34.0955ZM297.549 33.3435L299.547 33.2573L299.461 31.2592L297.463 31.3454L297.549 33.3435ZM298.752 61.2229L296.754 61.3091L300.564 62.0694L298.752 61.2229ZM301.072 56.9001L299.377 55.8391L299.369 55.8512L299.362 55.8634L301.072 56.9001ZM303.71 52.7836L305.381 53.8821L305.394 53.8622L305.407 53.8419L303.71 52.7836ZM316.34 32.5328L316.254 30.5347L315.201 30.5801L314.643 31.4745L316.34 32.5328ZM335.307 31.7146L336.99 32.7941L339.07 29.5504L335.221 29.7164L335.307 31.7146ZM316.308 61.3452L314.624 60.2657L313.943 61.3268L314.607 62.3985L316.308 61.3452ZM337.639 93.9199L318.057 94.7647L318.23 98.761L337.811 97.9162L337.639 93.9199ZM319.879 95.7686L306.132 71.7734L302.661 73.7619L316.408 97.7571L319.879 95.7686ZM303.296 71.0972L298.292 74.3922L300.492 77.733L305.496 74.4381L303.296 71.0972ZM297.394 76.1488L298.32 97.6181L302.316 97.4457L301.39 75.9764L297.394 76.1488ZM300.232 95.5337L282.802 96.2857L282.974 100.282L300.404 99.53L300.232 95.5337ZM284.886 98.1976L282.117 34.0093L278.121 34.1817L280.89 98.3701L284.886 98.1976ZM280.205 36.0936L297.635 35.3417L297.463 31.3454L280.033 32.0974L280.205 36.0936ZM295.551 33.4297L296.754 61.3091L300.75 61.1367L299.547 33.2573L295.551 33.4297ZM300.564 62.0694C301.203 60.7022 301.942 59.3246 302.783 57.9367L299.362 55.8634C298.451 57.3663 297.643 58.8706 296.94 60.3763L300.564 62.0694ZM302.768 57.9611C303.666 56.5258 304.537 55.1663 305.381 53.8821L302.039 51.685C301.177 52.9963 300.29 54.3811 299.377 55.8391L302.768 57.9611ZM305.407 53.8419L318.037 33.5912L314.643 31.4745L302.013 51.7252L305.407 53.8419ZM316.426 34.531L335.393 33.7127L335.221 29.7164L316.254 30.5347L316.426 34.531ZM333.623 30.635L314.624 60.2657L317.991 62.4248L336.99 32.7941L333.623 30.635ZM314.607 62.3985L336.025 96.9713L339.425 94.8648L318.008 60.292L314.607 62.3985Z" fill="#851717" mask="url(#path-7-outside-4_2_12)"/>
<path d="M349.105 96.6871L351.218 32.4738L368.654 33.0474L366.542 97.2607L349.105 96.6871Z" fill="#C31212"/>
<mask id="path-10-outside-5_2_12" maskUnits="userSpaceOnUse" x="382.288" y="31.2334" width="50.6761" height="73.0522" fill="black">
<rect fill="white" x="382.288" y="31.2334" width="50.6761" height="73.0522"/>
<path d="M423.37 102.005L385.416 98.1921L391.838 34.2658L429.791 38.0783L428.399 51.9392L407.717 49.8616L406.707 59.9184L425.859 61.8423L424.466 75.7032L405.315 73.7794L404.102 85.8475L424.784 87.9251L423.37 102.005Z"/>
</mask>
<path d="M423.37 102.005L385.416 98.1921L391.838 34.2658L429.791 38.0783L428.399 51.9392L407.717 49.8616L406.707 59.9184L425.859 61.8423L424.466 75.7032L405.315 73.7794L404.102 85.8475L424.784 87.9251L423.37 102.005Z" fill="#C31212"/>
<path d="M423.37 102.005L423.17 103.995L425.16 104.194L425.36 102.204L423.37 102.005ZM385.416 98.1921L383.426 97.9922L383.227 99.9822L385.217 100.182L385.416 98.1921ZM391.838 34.2658L392.038 32.2758L390.048 32.0759L389.848 34.0659L391.838 34.2658ZM429.791 38.0783L431.781 38.2782L431.981 36.2882L429.991 36.0883L429.791 38.0783ZM428.399 51.9392L428.199 53.9292L430.189 54.1291L430.389 52.1391L428.399 51.9392ZM407.717 49.8616L407.917 47.8717L405.927 47.6718L405.727 49.6617L407.717 49.8616ZM406.707 59.9184L404.717 59.7186L404.517 61.7085L406.507 61.9084L406.707 59.9184ZM425.859 61.8423L427.849 62.0422L428.048 60.0522L426.058 59.8523L425.859 61.8423ZM424.466 75.7032L424.266 77.6932L426.256 77.893L426.456 75.9031L424.466 75.7032ZM405.315 73.7794L405.514 71.7894L403.524 71.5895L403.325 73.5795L405.315 73.7794ZM404.102 85.8475L402.112 85.6476L401.912 87.6376L403.902 87.8375L404.102 85.8475ZM424.784 87.9251L426.774 88.125L426.974 86.135L424.984 85.9351L424.784 87.9251ZM423.57 100.015L385.616 96.2021L385.217 100.182L423.17 103.995L423.57 100.015ZM387.406 98.392L393.828 34.4657L389.848 34.0659L383.426 97.9922L387.406 98.392ZM391.638 36.2558L429.592 40.0683L429.991 36.0883L392.038 32.2758L391.638 36.2558ZM427.801 37.8784L426.409 51.7393L430.389 52.1391L431.781 38.2782L427.801 37.8784ZM428.599 49.9492L407.917 47.8717L407.517 51.8516L428.199 53.9292L428.599 49.9492ZM405.727 49.6617L404.717 59.7186L408.697 60.1183L409.707 50.0615L405.727 49.6617ZM406.507 61.9084L425.659 63.8322L426.058 59.8523L406.907 57.9285L406.507 61.9084ZM423.869 61.6424L422.476 75.5033L426.456 75.9031L427.849 62.0422L423.869 61.6424ZM424.666 73.7132L405.514 71.7894L405.115 75.7693L424.266 77.6932L424.666 73.7132ZM403.325 73.5795L402.112 85.6476L406.092 86.0474L407.305 73.9793L403.325 73.5795ZM403.902 87.8375L424.584 89.9151L424.984 85.9351L404.302 83.8575L403.902 87.8375ZM422.794 87.7252L421.38 101.805L425.36 102.204L426.774 88.125L422.794 87.7252Z" fill="#851717" mask="url(#path-10-outside-5_2_12)"/>
<mask id="path-12-outside-6_2_12" maskUnits="userSpaceOnUse" x="436.028" y="37.9011" width="54.6444" height="75.5766" fill="black">
<rect fill="white" x="436.028" y="37.9011" width="54.6444" height="75.5766"/>
<path d="M456.1 107.404L439.281 104.348L450.769 41.135L488.126 47.9239L485.635 61.6301L465.097 57.8977L462.905 69.9609L481.843 73.4025L479.352 87.1087L460.414 83.6671L456.1 107.404Z"/>
</mask>
<path d="M456.1 107.404L439.281 104.348L450.769 41.135L488.126 47.9239L485.635 61.6301L465.097 57.8977L462.905 69.9609L481.843 73.4025L479.352 87.1087L460.414 83.6671L456.1 107.404Z" fill="#C31212"/>
<path d="M456.1 107.404L455.743 109.372L457.711 109.73L458.068 107.762L456.1 107.404ZM439.281 104.348L437.313 103.99L436.956 105.958L438.924 106.315L439.281 104.348ZM450.769 41.135L451.127 39.1672L449.159 38.8096L448.801 40.7774L450.769 41.135ZM488.126 47.9239L490.094 48.2815L490.451 46.3137L488.483 45.9561L488.126 47.9239ZM485.635 61.6301L485.277 63.5978L487.245 63.9554L487.603 61.9877L485.635 61.6301ZM465.097 57.8977L465.455 55.93L463.487 55.5724L463.13 57.5401L465.097 57.8977ZM462.905 69.9609L460.937 69.6033L460.58 71.5711L462.547 71.9287L462.905 69.9609ZM481.843 73.4025L483.811 73.7601L484.168 71.7923L482.201 71.4347L481.843 73.4025ZM479.352 87.1087L478.995 89.0764L480.962 89.434L481.32 87.4663L479.352 87.1087ZM460.414 83.6671L460.772 81.6993L458.804 81.3417L458.446 83.3095L460.414 83.6671ZM456.458 105.436L439.639 102.38L438.924 106.315L455.743 109.372L456.458 105.436ZM441.249 104.705L452.737 41.4926L448.801 40.7774L437.313 103.99L441.249 104.705ZM450.411 43.1028L487.768 49.8917L488.483 45.9561L451.127 39.1672L450.411 43.1028ZM486.158 47.5663L483.667 61.2725L487.603 61.9877L490.094 48.2815L486.158 47.5663ZM485.993 59.6623L465.455 55.93L464.74 59.8655L485.277 63.5978L485.993 59.6623ZM463.13 57.5401L460.937 69.6033L464.873 70.3185L467.065 58.2553L463.13 57.5401ZM462.547 71.9287L481.485 75.3703L482.201 71.4347L463.263 67.9931L462.547 71.9287ZM479.875 73.0449L477.384 86.7511L481.32 87.4663L483.811 73.7601L479.875 73.0449ZM479.71 85.1409L460.772 81.6993L460.057 85.6348L478.995 89.0764L479.71 85.1409ZM458.446 83.3095L454.133 107.047L458.068 107.762L462.382 84.0247L458.446 83.3095Z" fill="#851717" mask="url(#path-12-outside-6_2_12)"/>
<mask id="path-14-outside-7_2_12" maskUnits="userSpaceOnUse" x="488.139" y="49.0252" width="64.213" height="79.0669" fill="black">
<rect fill="white" x="488.139" y="49.0252" width="64.213" height="79.0669"/>
<path d="M491.5 114.507L508.117 52.4448L524.885 56.9344L511.893 105.455L535.793 111.854L532.167 125.395L491.5 114.507Z"/>
</mask>
<path d="M491.5 114.507L508.117 52.4448L524.885 56.9344L511.893 105.455L535.793 111.854L532.167 125.395L491.5 114.507Z" fill="#C31212"/>
<path d="M491.5 114.507L489.568 113.989L489.051 115.921L490.983 116.439L491.5 114.507ZM508.117 52.4448L508.634 50.5128L506.702 49.9955L506.185 51.9275L508.117 52.4448ZM524.885 56.9344L526.817 57.4517L527.334 55.5197L525.402 55.0024L524.885 56.9344ZM511.893 105.455L509.961 104.937L509.444 106.869L511.376 107.387L511.893 105.455ZM535.793 111.854L537.725 112.371L538.242 110.439L536.31 109.922L535.793 111.854ZM532.167 125.395L531.65 127.327L533.582 127.845L534.099 125.913L532.167 125.395ZM493.432 115.024L510.049 52.9621L506.185 51.9275L489.568 113.989L493.432 115.024ZM507.6 54.3767L524.368 58.8663L525.402 55.0024L508.634 50.5128L507.6 54.3767ZM522.953 56.4171L509.961 104.937L513.825 105.972L526.817 57.4517L522.953 56.4171ZM511.376 107.387L535.276 113.786L536.31 109.922L512.411 103.523L511.376 107.387ZM533.861 111.337L530.235 124.878L534.099 125.913L537.725 112.371L533.861 111.337ZM532.684 123.463L492.017 112.575L490.983 116.439L531.65 127.327L532.684 123.463Z" fill="#851717" mask="url(#path-14-outside-7_2_12)"/>
<path d="M546.59 130.288L567.472 69.5284L583.971 75.1989L563.089 135.959L546.59 130.288Z" fill="#C31212"/>
<mask id="path-17-outside-8_2_12" maskUnits="userSpaceOnUse" x="570.018" y="76.301" width="94.4526" height="92.3783" fill="black">
<rect fill="white" x="570.018" y="76.301" width="94.4526" height="92.3783"/>
<path d="M633.932 165.179L615.513 157.174L612.031 133.763L592.661 147.243L574.645 139.413L607.294 117.761L601.421 80.9972L619.074 88.669L621.798 111.51L639.952 97.742L658.129 105.641L626.419 127.558L633.932 165.179Z"/>
</mask>
<path d="M633.932 165.179L615.513 157.174L612.031 133.763L592.661 147.243L574.645 139.413L607.294 117.761L601.421 80.9972L619.074 88.669L621.798 111.51L639.952 97.742L658.129 105.641L626.419 127.558L633.932 165.179Z" fill="#C31212"/>
<path d="M633.932 165.179L633.135 167.013L636.642 168.537L635.893 164.787L633.932 165.179ZM615.513 157.174L613.535 157.468L613.698 158.566L614.716 159.008L615.513 157.174ZM612.031 133.763L614.009 133.469L613.535 130.28L610.889 132.122L612.031 133.763ZM592.661 147.243L591.864 149.077L592.887 149.522L593.803 148.884L592.661 147.243ZM574.645 139.413L573.539 137.747L570.472 139.781L573.848 141.248L574.645 139.413ZM607.294 117.761L608.399 119.428L609.472 118.717L609.269 117.446L607.294 117.761ZM601.421 80.9972L602.218 79.1629L598.871 77.708L599.446 81.3127L601.421 80.9972ZM619.074 88.669L621.06 88.4322L620.924 87.2923L619.872 86.8347L619.074 88.669ZM621.798 111.51L619.812 111.747L620.225 115.213L623.006 113.104L621.798 111.51ZM639.952 97.742L640.749 95.9077L639.676 95.4413L638.743 96.1484L639.952 97.742ZM658.129 105.641L659.266 107.287L662.226 105.241L658.926 103.807L658.129 105.641ZM626.419 127.558L625.282 125.913L624.2 126.66L624.458 127.95L626.419 127.558ZM634.729 163.344L616.31 155.34L614.716 159.008L633.135 167.013L634.729 163.344ZM617.491 156.88L614.009 133.469L610.053 134.058L613.535 157.468L617.491 156.88ZM610.889 132.122L591.518 145.601L593.803 148.884L613.173 135.405L610.889 132.122ZM593.458 145.409L575.442 137.579L573.848 141.248L591.864 149.077L593.458 145.409ZM575.75 141.08L608.399 119.428L606.188 116.094L573.539 137.747L575.75 141.08ZM609.269 117.446L603.396 80.6817L599.446 81.3127L605.319 118.077L609.269 117.446ZM600.624 82.8315L618.277 90.5032L619.872 86.8347L602.218 79.1629L600.624 82.8315ZM617.088 88.9057L619.812 111.747L623.784 111.274L621.06 88.4322L617.088 88.9057ZM623.006 113.104L641.16 99.3355L638.743 96.1484L620.589 109.917L623.006 113.104ZM639.155 99.5762L657.332 107.476L658.926 103.807L640.749 95.9077L639.155 99.5762ZM656.992 103.996L625.282 125.913L627.556 129.203L659.266 107.287L656.992 103.996ZM624.458 127.95L631.971 165.57L635.893 164.787L628.38 127.166L624.458 127.95Z" fill="#851717" mask="url(#path-17-outside-8_2_12)"/>
</g>
<defs>
<filter id="filter0_d_2_12" x="5.71732" y="30.1146" width="661.422" height="148.664" filterUnits="userSpaceOnUse" color-interpolation-filters="sRGB">
<feFlood flood-opacity="0" result="BackgroundImageFix"/>
<feColorMatrix in="SourceAlpha" type="matrix" values="0 0 0 0 0 0 0 0 0 0 0 0 0 0 0 0 0 0 127 0" result="hardAlpha"/>
<feOffset dy="6"/>
<feGaussianBlur stdDeviation="3.8"/>
<feComposite in2="hardAlpha" operator="out"/>
<feColorMatrix type="matrix" values="0 0 0 0 0 0 0 0 0 0 0 0 0 0 0 0 0 0 0.5 0"/>
<feBlend mode="normal" in2="BackgroundImageFix" result="effect1_dropShadow_2_12"/>
<feBlend mode="normal" in="SourceGraphic" in2="effect1_dropShadow_2_12" result="shape"/>
</filter>
</defs>
</svg>
